<svg xmlns="http://www.w3.org/2000/svg" viewBox="0 10.649999618530273 503.3999938964844 48.599998474121094" data-asc="0.975" width="503.3999938964844" height="48.599998474121094"><defs/><g fill="#2f9ef8"><g transform="translate(0, 0)"><path d="M0 48.75L0 13.75L6.50 13.75L6.50 48.75L0 48.75ZM14.60 48.75L14.60 23.75L21.00 23.75L21.00 33.17L32.53 33.17L32.53 23.75L38.93 23.75L38.93 48.75L32.53 48.75L32.53 38.38L21.00 38.38L21.00 48.75L14.60 48.75ZM51.68 48.75L51.68 28.95L43.80 28.95L43.80 23.75L65.95 23.75L65.95 28.95L58.08 28.95L58.08 48.75L51.68 48.75ZM82.38 49.50Q78.30 49.50 75.23 47.84Q72.15 46.17 70.44 43.20Q68.73 40.23 68.73 36.27Q68.73 33.38 69.71 30.95Q70.70 28.52 72.51 26.74Q74.33 24.95 76.76 23.97Q79.20 23 82.10 23Q85.25 23 87.73 24.11Q90.20 25.22 91.84 27.24Q93.48 29.25 94.14 31.94Q94.80 34.63 94.30 37.80L74.75 37.80Q74.73 39.77 75.69 41.25Q76.65 42.73 78.44 43.56Q80.23 44.40 82.65 44.40Q84.80 44.40 86.78 43.77Q88.75 43.15 90.45 41.92L92.70 46.40Q91.53 47.35 89.78 48.05Q88.03 48.75 86.09 49.13Q84.15 49.50 82.38 49.50M75.13 33.25L88.10 33.25Q88.03 30.72 86.43 29.29Q84.83 27.85 81.95 27.85Q79.10 27.85 77.25 29.29Q75.40 30.72 75.13 33.25ZM99.80 59.25L99.80 23.75L105.45 23.75L105.45 27.05Q106.90 25.22 109.18 24.11Q111.45 23 114.68 23Q118.30 23 121.13 24.70Q123.95 26.40 125.56 29.39Q127.18 32.38 127.18 36.25Q127.18 39.02 126.25 41.42Q125.33 43.83 123.65 45.64Q121.98 47.45 119.66 48.48Q117.35 49.50 114.58 49.50Q111.88 49.50 109.79 48.56Q107.70 47.63 106.18 46L106.18 59.25L99.80 59.25M113.50 43.90Q115.63 43.90 117.28 42.96Q118.93 42.02 119.88 40.31Q120.83 38.60 120.83 36.25Q120.83 33.90 119.88 32.17Q118.93 30.45 117.26 29.52Q115.60 28.60 113.50 28.60Q111.38 28.60 109.73 29.52Q108.08 30.45 107.13 32.17Q106.18 33.90 106.18 36.25Q106.18 38.60 107.11 40.31Q108.05 42.02 109.71 42.96Q111.38 43.90 113.50 43.90ZM132.45 48.75L132.45 23.75L138.85 23.75L138.85 33.17L150.38 33.17L150.38 23.75L156.78 23.75L156.78 48.75L150.38 48.75L150.38 38.38L138.85 38.38L138.85 48.75L132.45 48.75ZM175.70 49.50Q171.63 49.50 168.55 47.84Q165.48 46.17 163.76 43.20Q162.05 40.23 162.05 36.27Q162.05 33.38 163.04 30.95Q164.03 28.52 165.84 26.74Q167.65 24.95 170.09 23.97Q172.53 23 175.43 23Q178.58 23 181.05 24.11Q183.53 25.22 185.16 27.24Q186.80 29.25 187.46 31.94Q188.13 34.63 187.63 37.80L168.08 37.80Q168.05 39.77 169.01 41.25Q169.98 42.73 171.76 43.56Q173.55 44.40 175.98 44.40Q178.13 44.40 180.10 43.77Q182.08 43.15 183.78 41.92L186.03 46.40Q184.85 47.35 183.10 48.05Q181.35 48.75 179.41 49.13Q177.48 49.50 175.70 49.50M168.45 33.25L181.43 33.25Q181.35 30.72 179.75 29.29Q178.15 27.85 175.28 27.85Q172.43 27.85 170.58 29.29Q168.73 30.72 168.45 33.25ZM198.50 48.75L198.50 28.95L190.63 28.95L190.63 23.75L212.78 23.75L212.78 28.95L204.90 28.95L204.90 48.75L198.50 48.75ZM229.65 48.75L229.65 23.75L253.95 23.75L253.95 48.75L247.55 48.75L247.55 28.95L236.05 28.95L236.05 48.75L229.65 48.75ZM261.33 59.25L261.33 23.75L266.98 23.75L266.98 27.05Q268.43 25.22 270.70 24.11Q272.98 23 276.20 23Q279.83 23 282.65 24.70Q285.48 26.40 287.09 29.39Q288.70 32.38 288.70 36.25Q288.70 39.02 287.78 41.42Q286.85 43.83 285.18 45.64Q283.50 47.45 281.19 48.48Q278.88 49.50 276.10 49.50Q273.40 49.50 271.31 48.56Q269.23 47.63 267.70 46L267.70 59.25L261.33 59.25M275.03 43.90Q277.15 43.90 278.80 42.96Q280.45 42.02 281.40 40.31Q282.35 38.60 282.35 36.25Q282.35 33.90 281.40 32.17Q280.45 30.45 278.79 29.52Q277.13 28.60 275.03 28.60Q272.90 28.60 271.25 29.52Q269.60 30.45 268.65 32.17Q267.70 33.90 267.70 36.25Q267.70 38.60 268.64 40.31Q269.58 42.02 271.24 42.96Q272.90 43.90 275.03 43.90ZM305.55 49.50Q301.55 49.50 298.46 47.69Q295.38 45.88 293.63 42.86Q291.88 39.85 291.88 36.25Q291.88 33.60 292.88 31.20Q293.88 28.80 295.71 26.96Q297.55 25.13 300.05 24.06Q302.55 23 305.55 23Q309.53 23 312.61 24.80Q315.70 26.60 317.46 29.63Q319.23 32.65 319.23 36.25Q319.23 38.90 318.21 41.29Q317.20 43.67 315.38 45.52Q313.55 47.38 311.05 48.44Q308.55 49.50 305.55 49.50M305.55 43.90Q307.65 43.90 309.31 42.96Q310.98 42.02 311.93 40.31Q312.88 38.60 312.88 36.25Q312.88 33.90 311.93 32.17Q310.98 30.45 309.33 29.52Q307.68 28.60 305.55 28.60Q303.43 28.60 301.76 29.52Q300.10 30.45 299.16 32.17Q298.23 33.90 298.23 36.25Q298.23 38.60 299.18 40.31Q300.13 42.02 301.78 42.96Q303.43 43.90 305.55 43.90ZM324.50 48.75L324.50 23.75L336.82 23.75Q341.15 23.75 343.69 25.36Q346.23 26.97 346.23 30.20Q346.23 31.80 345.43 32.99Q344.63 34.17 343.25 34.94Q341.88 35.70 340.13 36.02L340.03 34.60Q343.45 35 345.38 36.76Q347.30 38.52 347.30 41.27Q347.30 43.60 346.11 45.27Q344.93 46.95 342.68 47.85Q340.43 48.75 337.25 48.75L324.50 48.75M330.65 44.20L336.40 44.20Q338.63 44.20 339.82 43.44Q341.03 42.67 341.03 41.20Q341.03 39.75 339.84 39Q338.65 38.25 336.40 38.25L329.93 38.25L329.93 33.90L335.80 33.90Q337.90 33.90 339.05 33.24Q340.20 32.58 340.20 31.13Q340.20 29.65 339.04 28.97Q337.88 28.30 335.80 28.30L330.65 28.30L330.65 44.20ZM360.15 49.50Q357.60 49.50 355.63 48.52Q353.65 47.55 352.52 45.76Q351.40 43.98 351.40 41.52Q351.40 39.42 352.45 37.77Q353.50 36.13 355.68 35.04Q357.85 33.95 361.24 33.58Q364.63 33.20 369.27 33.67L369.38 37.90Q366.32 37.42 364.05 37.48Q361.77 37.52 360.29 38Q358.80 38.48 358.06 39.30Q357.32 40.13 357.32 41.23Q357.32 42.88 358.52 43.76Q359.73 44.65 361.80 44.65Q363.57 44.65 364.99 44Q366.40 43.35 367.23 42.16Q368.05 40.98 368.05 39.35L368.05 33.02Q368.05 31.45 367.39 30.29Q366.73 29.13 365.38 28.49Q364.02 27.85 361.90 27.85Q359.95 27.85 358.04 28.44Q356.13 29.02 354.45 30.25L352.73 25.67Q355.10 24.10 357.73 23.42Q360.35 22.75 362.80 22.75Q366.30 22.75 368.86 23.85Q371.43 24.95 372.81 27.21Q374.20 29.47 374.20 32.95L374.20 48.75L368.55 48.75L368.55 45.90Q367.30 47.63 365.10 48.56Q362.90 49.50 360.15 49.50ZM381.27 48.75L381.27 23.75L387.43 23.75L387.43 39.55L400.05 23.75L405.70 23.75L405.70 48.75L399.55 48.75L399.55 32.75L386.85 48.75L381.27 48.75M393.47 19.75Q390.57 19.75 388.40 18.59Q386.22 17.42 385.04 15.38Q383.85 13.32 383.93 10.65L389.20 10.65Q389.13 12.80 390.29 14.11Q391.45 15.42 393.47 15.42Q395.50 15.42 396.66 14.11Q397.82 12.80 397.70 10.65L403 10.65Q403.07 13.27 401.86 15.34Q400.65 17.40 398.47 18.57Q396.30 19.75 393.47 19.75ZM431 48.75L431 28.95L421.90 28.95L421.90 31.72Q421.90 34.92 421.46 37.65Q421.02 40.38 419.93 42.50Q418.82 44.63 416.88 46.06Q414.93 47.50 411.90 48.13L410.48 43.75Q412.80 43.20 413.99 41.61Q415.18 40.02 415.59 37.52Q416 35.02 416 31.72L416 23.75L437.40 23.75L437.40 48.75L431 48.75M410.48 56.25L410.48 43.75L414.18 44.08L415.18 43.55L442.43 43.55L442.43 56.25L436.57 56.25L436.57 48.75L416.32 48.75L416.32 56.25L410.48 56.25ZM458.60 49.50Q454.53 49.50 451.45 47.84Q448.38 46.17 446.66 43.20Q444.95 40.23 444.95 36.27Q444.95 33.38 445.94 30.95Q446.93 28.52 448.74 26.74Q450.55 24.95 452.99 23.97Q455.43 23 458.33 23Q461.48 23 463.95 24.11Q466.43 25.22 468.06 27.24Q469.70 29.25 470.36 31.94Q471.03 34.63 470.53 37.80L450.98 37.80Q450.95 39.77 451.91 41.25Q452.88 42.73 454.66 43.56Q456.45 44.40 458.88 44.40Q461.03 44.40 463 43.77Q464.98 43.15 466.68 41.92L468.93 46.40Q467.75 47.35 466 48.05Q464.25 48.75 462.31 49.13Q460.38 49.50 458.60 49.50M451.35 33.25L464.33 33.25Q464.25 30.72 462.65 29.29Q461.05 27.85 458.18 27.85Q455.33 27.85 453.48 29.29Q451.63 30.72 451.35 33.25ZM476.03 59.25L476.03 23.75L481.68 23.75L481.68 27.05Q483.13 25.22 485.40 24.11Q487.68 23 490.90 23Q494.53 23 497.35 24.70Q500.18 26.40 501.79 29.39Q503.40 32.38 503.40 36.25Q503.40 39.02 502.48 41.42Q501.55 43.83 499.88 45.64Q498.20 47.45 495.89 48.48Q493.58 49.50 490.80 49.50Q488.10 49.50 486.01 48.56Q483.93 47.63 482.40 46L482.40 59.25L476.03 59.25M489.73 43.90Q491.85 43.90 493.50 42.96Q495.15 42.02 496.10 40.31Q497.05 38.60 497.05 36.25Q497.05 33.90 496.10 32.17Q495.15 30.45 493.49 29.52Q491.83 28.60 489.73 28.60Q487.60 28.60 485.95 29.52Q484.30 30.45 483.35 32.17Q482.40 33.90 482.40 36.25Q482.40 38.60 483.34 40.31Q484.28 42.02 485.94 42.96Q487.60 43.90 489.73 43.90Z"/></g></g></svg>