<?xml version="1.0" encoding="utf-8"?>
<!-- Generator: Adobe Illustrator 24.0.1, SVG Export Plug-In . SVG Version: 6.00 Build 0)  -->
<svg version="1.1" id="Слой_1" xmlns="http://www.w3.org/2000/svg" xmlns:xlink="http://www.w3.org/1999/xlink" x="0px" y="0px"
	 viewBox="0 0 425.2 283.5" style="enable-background:new 0 0 425.2 283.5;" xml:space="preserve">
<style type="text/css">
	.st0{fill:#FFFFFF;}
	.st1{display:none;}
	.st2{display:inline;}
	.st3{fill:#005CA9;}
	.st4{display:inline;fill:#F7A823;}
	.st5{display:inline;fill:#005CA9;}
	.st6{fill-rule:evenodd;clip-rule:evenodd;fill:#FAB51D;}
	.st7{fill-rule:evenodd;clip-rule:evenodd;fill:#E40520;}
	.st8{fill-rule:evenodd;clip-rule:evenodd;fill:#FFFFFF;}
	.st9{fill:none;stroke:#FFFFFF;stroke-width:0.216;stroke-miterlimit:2.6131;}
	.st10{fill-rule:evenodd;clip-rule:evenodd;fill:url(#SVGID_1_);}
	.st11{opacity:0.4;fill-rule:evenodd;clip-rule:evenodd;fill:url(#SVGID_2_);enable-background:new    ;}
	.st12{opacity:0.4;fill-rule:evenodd;clip-rule:evenodd;fill:url(#SVGID_3_);enable-background:new    ;}
	.st13{fill-rule:evenodd;clip-rule:evenodd;fill:url(#SVGID_4_);}
	.st14{fill-rule:evenodd;clip-rule:evenodd;fill:url(#SVGID_5_);}
	.st15{opacity:0.4;fill-rule:evenodd;clip-rule:evenodd;fill:url(#SVGID_6_);enable-background:new    ;}
	.st16{opacity:0.4;fill-rule:evenodd;clip-rule:evenodd;fill:url(#SVGID_7_);enable-background:new    ;}
	.st17{fill-rule:evenodd;clip-rule:evenodd;fill:url(#SVGID_8_);}
	.st18{fill-rule:evenodd;clip-rule:evenodd;fill:#4B4B4C;}
</style>
<g id="Слой_4">
	<path class="st0" d="M396.9,283.5H28.3C12.7,283.5,0,270.8,0,255.1V28.3C0,12.7,12.7,0,28.3,0h368.5c15.7,0,28.3,12.7,28.3,28.3
		v226.8C425.2,270.8,412.5,283.5,396.9,283.5z"/>
</g>
<g id="Слой_1_1_" class="st1">
	<g class="st2">
		<polygon class="st3" points="193.7,186.2 170.6,186.2 185.1,97.3 208.2,97.3 		"/>
		<path class="st3" d="M151.2,97.3l-22.1,61.1l-2.6-13.2l0,0l-7.8-40c0,0-0.9-8-11-8H71.3l-0.4,1.5c0,0,11.2,2.3,24.2,10.2
			l20.1,77.2h24.1l36.8-88.8L151.2,97.3L151.2,97.3z"/>
		<path class="st3" d="M333.1,186.2h21.2l-18.5-88.8h-18.6c-8.6,0-10.7,6.6-10.7,6.6L272,186.2h24.1L301,173h29.4L333.1,186.2z
			 M307.6,154.8l12.2-33.2l6.8,33.2H307.6z"/>
		<path class="st3" d="M273.9,118.7l3.3-19.1c0,0-10.2-3.9-20.8-3.9c-11.5,0-38.7,5-38.7,29.4c0,23,32,23.2,32,35.3
			s-28.7,9.9-38.2,2.3l-3.4,19.9c0,0,10.3,5,26.1,5s39.6-8.2,39.6-30.4c0-23.1-32.3-25.3-32.3-35.3C241.4,112,264,113.3,273.9,118.7
			z"/>
	</g>
	<path class="st4" d="M126.5,145.3l-7.8-40c0,0-0.9-8-11-8H71.3h-6.5l6.1,1.5c0,0,17.5,3.6,34.3,17.2
		C121.3,129.1,126.5,145.3,126.5,145.3z"/>
	<path class="st4" d="M422.5,73.4H2.7c-1.5,0-2.7-1.2-2.7-2.7V14.2C0,6.3,6.3,0,14.2,0H411c7.8,0,14.2,6.3,14.2,14.2v56.5
		C425.2,72.2,424,73.4,422.5,73.4z"/>
	<path class="st5" d="M411,283.5H14.2c-7.8,0-14.2-6.3-14.2-14.2v-56.7h425.2v56.7C425.2,277.1,418.9,283.5,411,283.5z"/>
</g>
<g id="Слой_2_1_" class="st1">
	<g class="st2">
		<polygon class="st6" points="283.6,247.9 289.1,247.7 294.5,247.3 299.8,246.7 305,245.7 310.2,244.5 315.2,243.1 320.2,241.4 
			325,239.5 329.7,237.4 334.3,235.1 338.7,232.5 343.1,229.7 347.2,226.8 351.2,223.6 355.1,220.3 358.8,216.7 362.3,213 
			365.7,209.2 368.8,205.2 371.8,201 374.5,196.7 377.1,192.2 379.5,187.7 381.6,182.9 383.5,178.1 385.2,173.2 386.6,168.1 
			387.8,163 388.7,157.7 389.4,152.4 389.8,147 389.9,141.5 389.8,136.1 389.4,130.7 388.7,125.4 387.8,120.2 386.6,115.1 
			385.2,110.1 383.5,105.2 381.6,100.4 379.5,95.7 377.1,91.1 374.5,86.7 371.8,82.3 368.8,78.2 365.7,74.2 362.3,70.4 358.8,66.7 
			355.1,63.2 351.2,59.8 347.2,56.7 343.1,53.7 338.7,50.9 334.3,48.4 329.7,46.1 325,43.9 320.2,42 315.2,40.3 310.2,38.9 
			305,37.7 299.8,36.8 294.5,36.1 289.1,35.7 283.6,35.6 278.2,35.7 272.8,36.1 267.5,36.8 262.2,37.7 257.1,38.9 252.1,40.3 
			247.1,42 242.3,43.9 237.6,46.1 233.1,48.4 228.6,50.9 224.3,53.7 220.2,56.7 216.2,59.8 212.3,63.2 208.7,66.7 205.2,70.4 
			201.8,74.2 198.7,78.2 195.7,82.3 193,86.7 190.4,91.1 188.1,95.7 186,100.4 184.1,105.2 182.4,110.1 181,115.1 179.8,120.2 
			178.9,125.4 178.2,130.7 177.8,136.1 177.7,141.5 177.8,147 178.2,152.4 178.9,157.7 179.8,163 181,168.1 182.4,173.2 
			184.1,178.1 186,182.9 188.1,187.7 190.4,192.2 193,196.7 195.7,201 198.7,205.2 201.8,209.2 205.2,213 208.7,216.7 212.3,220.3 
			216.2,223.6 220.2,226.8 224.3,229.7 228.6,232.5 233.1,235.1 237.6,237.4 242.3,239.5 247.1,241.4 252.1,243.1 257.1,244.5 
			262.2,245.7 267.5,246.7 272.8,247.3 278.2,247.7 283.6,247.9 		"/>
		<polygon class="st7" points="141.6,247.9 147,247.7 152.4,247.3 157.7,246.7 163,245.7 168.1,244.5 173.1,243.1 178,241.4 
			182.9,239.5 187.6,237.4 192.1,235.1 196.6,232.5 200.9,229.7 205,226.8 209,223.6 212.8,220.3 216.5,216.7 220,213 223.4,209.2 
			226.5,205.2 229.5,201 232.2,196.7 234.8,192.2 237.1,187.7 239.2,182.9 241.1,178.1 242.8,173.2 244.2,168.1 245.4,163 
			246.3,157.7 247,152.4 247.4,147 247.5,141.5 247.4,136.1 247,130.7 246.3,125.4 245.4,120.2 244.2,115.1 242.8,110.1 
			241.1,105.2 239.2,100.4 237.1,95.7 234.8,91.1 232.2,86.7 229.5,82.3 226.5,78.2 223.4,74.2 220,70.4 216.5,66.7 212.8,63.2 
			209,59.8 205,56.7 200.9,53.7 196.6,50.9 192.1,48.4 187.6,46.1 182.9,43.9 178,42 173.1,40.3 168.1,38.9 163,37.7 157.7,36.8 
			152.4,36.1 147,35.7 141.6,35.6 136.1,35.7 130.7,36.1 125.4,36.8 120.1,37.7 115,38.9 110,40.3 105,42 100.2,43.9 95.5,46.1 
			90.9,48.4 86.5,50.9 82.1,53.7 78,56.7 74,59.8 70.1,63.2 66.4,66.7 62.9,70.4 59.5,74.2 56.4,78.2 53.4,82.3 50.7,86.7 
			48.1,91.1 45.7,95.7 43.6,100.4 41.7,105.2 40,110.1 38.6,115.1 37.4,120.2 36.5,125.4 35.8,130.7 35.4,136.1 35.3,141.5 
			35.4,147 35.8,152.4 36.5,157.7 37.4,163 38.6,168.1 40,173.2 41.7,178.1 43.6,182.9 45.7,187.7 48.1,192.2 50.7,196.7 53.4,201 
			56.4,205.2 59.5,209.2 62.9,213 66.4,216.7 70.1,220.3 74,223.6 78,226.8 82.1,229.7 86.5,232.5 90.9,235.1 95.5,237.4 
			100.2,239.5 105,241.4 110,243.1 115,244.5 120.1,245.7 125.4,246.7 130.7,247.3 136.1,247.7 141.6,247.9 		"/>
		<polygon class="st6" points="200.2,76.3 256.6,76.3 256.6,70.5 205,70.5 200.2,76.3 		"/>
		<polygon class="st6" points="191.7,89.1 256.6,89.1 256.6,83.4 195.1,83.4 191.7,89.1 		"/>
		<polygon class="st6" points="185.4,101.9 256.6,101.9 256.6,96.1 187.9,96.1 185.4,101.9 		"/>
		<polygon class="st6" points="181.1,114.7 256.6,114.7 256.6,109 182.9,109 181.1,114.7 		"/>
		<polygon class="st6" points="183.6,176.7 256.7,176.7 256.7,170.9 181.8,170.9 183.6,176.7 		"/>
		<polygon class="st6" points="189,189.5 256.7,189.5 256.7,183.7 186.3,183.7 189,189.5 		"/>
		<polygon class="st6" points="196.6,202.3 256.7,202.3 256.7,196.5 193,196.5 196.6,202.3 		"/>
		<polygon class="st6" points="207,215.1 256.7,215.1 256.7,209.3 202,209.3 207,215.1 		"/>
		<polygon class="st6" points="178.5,127.5 256.6,127.5 256.6,121.7 179.7,121.7 178.5,127.5 		"/>
		<polygon class="st6" points="226.1,163.9 255.9,163.9 255.9,158.1 227.2,158.1 226.1,163.9 		"/>
		<polygon class="st6" points="228.5,151.1 255.9,151.1 255.9,145.3 229.5,145.3 228.5,151.1 		"/>
		<polygon class="st6" points="176.6,145.3 184.3,145.3 184.3,151.1 176.9,151.1 176.6,145.3 		"/>
		<polygon class="st8" points="162.1,138.3 161.6,138.3 161.1,138.2 160.7,138.1 160.2,138.1 159.8,138 159.3,137.9 158.9,137.8 
			158.4,137.8 157.9,137.7 157.3,137.7 156.6,137.6 156,137.6 155.2,137.6 154.4,137.6 153.4,137.7 152.4,137.8 151.7,137.9 
			151,138 150.4,138.2 149.9,138.4 149.4,138.7 148.9,139 148.5,139.3 148.2,139.6 148,140 147.8,140.4 147.8,140.9 147.8,141.3 
			147.9,141.8 148,142.2 148.3,142.7 148.7,143.1 149.4,143.8 150.2,144.4 151.2,144.8 152.3,145.2 153.4,145.6 154.6,146 
			155.8,146.4 157,146.9 158,147.5 159,148.2 159.9,149.1 160.7,150.2 161.3,151.6 161.6,153.2 161.8,155.1 161.6,157.4 
			161.4,159.1 160.9,160.5 160.4,161.9 159.6,163.1 158.8,164.1 157.9,165 156.9,165.8 155.8,166.5 154.6,167 153.4,167.5 
			152.2,167.9 151,168.1 149.8,168.4 148.6,168.5 147.4,168.5 146.3,168.6 144.7,168.6 143.3,168.5 142.1,168.5 140.9,168.5 
			139.8,168.5 138.8,168.4 138,168.3 137.2,168.2 136.4,168.1 135.7,168 135,167.9 134.4,167.7 133.8,167.6 133.3,167.4 
			132.7,167.1 132.1,166.9 133.7,159 134,159.1 134.4,159.2 134.9,159.3 135.5,159.5 136.2,159.6 136.9,159.8 137.7,159.9 
			138.5,160.1 139.4,160.2 140.3,160.4 141.3,160.5 142.3,160.6 143.4,160.6 144.4,160.7 145.4,160.7 146.5,160.6 147.5,160.4 
			148.3,160.1 149,159.7 149.5,159.2 149.8,158.7 150.1,158.1 150.3,157.6 150.4,157 150.5,156 150.2,155.1 149.6,154.4 
			148.7,153.8 147.6,153.2 146.4,152.7 145,152.2 143.6,151.6 142.1,151 140.8,150.2 139.5,149.3 138.4,148.2 137.5,146.8 
			136.8,145.2 136.5,143.3 136.5,141 136.7,139.6 137,138.3 137.3,137.1 137.8,135.9 138.3,134.8 139,133.9 139.7,133 140.6,132.2 
			141.7,131.5 142.8,131 144.1,130.4 145.5,130 147.1,129.7 148.9,129.5 150.8,129.3 152.9,129.3 154.3,129.3 155.5,129.3 
			156.6,129.4 157.6,129.4 158.5,129.5 159.3,129.5 160,129.6 160.7,129.7 161.3,129.8 161.8,129.9 162.3,129.9 162.7,130 
			163,130.1 163.4,130.1 163.7,130.2 164,130.2 162.1,138.3 		"/>
		<polyline class="st9" points="162.1,138.3 162.1,138.3 161.6,138.3 161.1,138.2 160.7,138.1 160.2,138.1 159.8,138 159.3,137.9 
			158.9,137.8 158.4,137.8 157.9,137.7 157.3,137.7 156.6,137.6 156,137.6 155.2,137.6 154.4,137.6 153.4,137.7 152.4,137.8 
			152.4,137.8 151.7,137.9 151,138 150.4,138.2 149.9,138.4 149.4,138.7 148.9,139 148.5,139.3 148.2,139.6 148,140 147.8,140.4 
			147.8,140.9 147.8,141.3 147.9,141.8 148,142.2 148.3,142.7 148.7,143.1 148.7,143.1 149.4,143.8 150.2,144.4 151.2,144.8 
			152.3,145.2 153.4,145.6 154.6,146 155.8,146.4 157,146.9 158,147.5 159,148.2 159.9,149.1 160.7,150.2 161.3,151.6 161.6,153.2 
			161.8,155.1 161.6,157.4 161.6,157.4 161.4,159.1 160.9,160.5 160.4,161.9 159.6,163.1 158.8,164.1 157.9,165 156.9,165.8 
			155.8,166.5 154.6,167 153.4,167.5 152.2,167.9 151,168.1 149.8,168.4 148.6,168.5 147.4,168.5 146.3,168.6 146.3,168.6 
			144.7,168.6 143.3,168.5 142.1,168.5 140.9,168.5 139.8,168.5 138.8,168.4 138,168.3 137.2,168.2 136.4,168.1 135.7,168 
			135,167.9 134.4,167.7 133.8,167.6 133.3,167.4 132.7,167.1 132.1,166.9 133.7,159 133.7,159 134,159.1 134.4,159.2 134.9,159.3 
			135.5,159.5 136.2,159.6 136.9,159.8 137.7,159.9 138.5,160.1 139.4,160.2 140.3,160.4 141.3,160.5 142.3,160.6 143.4,160.6 
			144.4,160.7 145.4,160.7 146.5,160.6 146.5,160.6 147.5,160.4 148.3,160.1 149,159.7 149.5,159.2 149.8,158.7 150.1,158.1 
			150.3,157.6 150.4,157 150.4,157 150.5,156 150.2,155.1 149.6,154.4 148.7,153.8 147.6,153.2 146.4,152.7 145,152.2 143.6,151.6 
			142.1,151 140.8,150.2 139.5,149.3 138.4,148.2 137.5,146.8 136.8,145.2 136.5,143.3 136.5,141 136.5,141 136.7,139.6 137,138.3 
			137.3,137.1 137.8,135.9 138.3,134.8 139,133.9 139.7,133 140.6,132.2 141.7,131.5 142.8,131 144.1,130.4 145.5,130 147.1,129.7 
			148.9,129.5 150.8,129.3 152.9,129.3 152.9,129.3 154.3,129.3 155.5,129.3 156.6,129.4 157.6,129.4 158.5,129.5 159.3,129.5 
			160,129.6 160.7,129.7 161.3,129.8 161.8,129.9 162.3,129.9 162.7,130 163,130.1 163.4,130.1 163.7,130.2 164,130.2 162.1,138.3 
					"/>
		<polygon class="st8" points="170.6,121.4 180.6,121.4 179.1,130 185.1,130 183.8,138.1 177.5,138 174,157.9 174,158.7 
			174.2,159.3 174.5,159.7 175,160.1 175.6,160.4 176.4,160.6 177.2,160.7 178,160.8 178.8,160.8 179.5,160.7 180.2,160.6 
			180.7,160.4 181.2,160.3 181.5,160.2 181.7,160.1 181.8,160.1 180.6,166.7 180.3,166.9 180.1,167.1 179.8,167.2 179.6,167.4 
			179.3,167.5 179,167.6 178.7,167.7 178.4,167.8 178,167.9 177.7,168 177.2,168 176.8,168.1 176.3,168.2 175.8,168.2 175.2,168.3 
			174.6,168.4 171.9,168.4 170.5,168.3 169.2,168.1 168.1,167.9 167.1,167.7 166.3,167.4 165.6,167 165,166.6 164.5,166.1 
			164.2,165.6 163.9,165 163.7,164.4 163.6,163.7 163.6,162.9 163.6,162.2 163.7,161.3 163.8,160.4 170.6,121.4 		"/>
		<polyline class="st9" points="170.6,121.4 180.6,121.4 179.1,130 185.1,130 183.8,138.1 177.5,138 174,157.9 174,157.9 174,158.7 
			174.2,159.3 174.5,159.7 175,160.1 175.6,160.4 176.4,160.6 177.2,160.7 178,160.8 178,160.8 178.8,160.8 179.5,160.7 
			180.2,160.6 180.7,160.4 181.2,160.3 181.5,160.2 181.7,160.1 181.8,160.1 180.6,166.7 180.6,166.7 180.3,166.9 180.1,167.1 
			179.8,167.2 179.6,167.4 179.3,167.5 179,167.6 178.7,167.7 178.4,167.8 178,167.9 177.7,168 177.2,168 176.8,168.1 176.3,168.2 
			175.8,168.2 175.2,168.3 174.6,168.4 171.9,168.4 171.9,168.4 170.5,168.3 169.2,168.1 168.1,167.9 167.1,167.7 166.3,167.4 
			165.6,167 165,166.6 164.5,166.1 164.2,165.6 163.9,165 163.7,164.4 163.6,163.7 163.6,162.9 163.6,162.2 163.7,161.3 
			163.8,160.4 170.6,121.4 		"/>
		<polygon class="st8" points="193,151.6 192.9,152.2 192.8,152.9 192.9,153.6 193,154.2 193.3,154.9 193.6,155.6 194,156.3 
			194.4,156.9 194.9,157.5 195.4,158 196,158.5 196.7,159 197.3,159.4 198,159.7 198.7,159.9 199.5,160.1 200.4,160.2 201.3,160.3 
			202.2,160.4 203.1,160.5 204.1,160.5 205,160.5 206,160.5 206.9,160.4 207.9,160.3 208.9,160.1 209.9,159.9 210.8,159.6 
			211.8,159.2 212.9,158.8 213.9,158.2 214.9,157.6 213.5,166.4 212.9,166.7 212.3,167 211.8,167.2 211.2,167.4 210.7,167.6 
			210.1,167.7 209.6,167.9 208.9,168 208.3,168.1 207.6,168.2 206.8,168.2 206,168.3 205.1,168.4 204.1,168.4 203,168.4 
			201.8,168.4 200.1,168.4 198.3,168.2 196.5,167.9 194.7,167.5 192.9,167 191.3,166.3 189.6,165.4 188.1,164.3 186.7,163.1 
			185.5,161.7 184.5,160 183.6,158.1 183,156 182.6,153.6 182.5,151 182.7,148 182.8,146.9 183.1,145.5 183.3,144.1 183.7,142.6 
			184.3,141.1 184.9,139.6 185.7,138 186.7,136.5 187.9,135.1 189.3,133.7 190.9,132.5 192.7,131.4 194.7,130.5 197.1,129.9 
			199.6,129.4 202.5,129.3 203.9,129.3 205.4,129.5 206.9,129.7 208.3,130.1 209.8,130.6 211.2,131.3 212.5,132.1 213.6,133.1 
			214.7,134.3 215.6,135.8 216.3,137.4 216.8,139.3 217.1,141.5 217.1,143.9 216.9,146.6 216.4,149.6 216.2,151.8 190.1,151.8 
			191.7,144.8 207.4,144.8 207.5,143.9 207.4,143 207.4,142.2 207.2,141.5 207,140.8 206.7,140.2 206.4,139.7 206,139.2 
			205.6,138.7 205.1,138.4 204.6,138.1 204,137.8 203.5,137.6 202.9,137.4 202.3,137.3 201.6,137.2 201,137.3 200.3,137.4 
			199.7,137.5 199.1,137.7 198.5,138 198,138.3 197.4,138.7 197,139.2 196.5,139.7 196.1,140.2 195.7,140.8 195.3,141.4 195,142 
			194.8,142.8 194.6,143.5 194.4,144.2 193,151.6 		"/>
		<polyline class="st9" points="193,151.6 193,151.6 192.9,152.2 192.8,152.9 192.9,153.6 193,154.2 193.3,154.9 193.6,155.6 
			194,156.3 194.4,156.9 194.9,157.5 195.4,158 196,158.5 196.7,159 197.3,159.4 198,159.7 198.7,159.9 199.5,160.1 199.5,160.1 
			200.4,160.2 201.3,160.3 202.2,160.4 203.1,160.5 204.1,160.5 205,160.5 206,160.5 206.9,160.4 207.9,160.3 208.9,160.1 
			209.9,159.9 210.8,159.6 211.8,159.2 212.9,158.8 213.9,158.2 214.9,157.6 213.5,166.4 213.5,166.4 212.9,166.7 212.3,167 
			211.8,167.2 211.2,167.4 210.7,167.6 210.1,167.7 209.6,167.9 208.9,168 208.3,168.1 207.6,168.2 206.8,168.2 206,168.3 
			205.1,168.4 204.1,168.4 203,168.4 201.8,168.4 201.8,168.4 200.1,168.4 198.3,168.2 196.5,167.9 194.7,167.5 192.9,167 
			191.3,166.3 189.6,165.4 188.1,164.3 186.7,163.1 185.5,161.7 184.5,160 183.6,158.1 183,156 182.6,153.6 182.5,151 182.7,148 
			182.7,148 182.8,146.9 183.1,145.5 183.3,144.1 183.7,142.6 184.3,141.1 184.9,139.6 185.7,138 186.7,136.5 187.9,135.1 
			189.3,133.7 190.9,132.5 192.7,131.4 194.7,130.5 197.1,129.9 199.6,129.4 202.5,129.3 202.5,129.3 203.9,129.3 205.4,129.5 
			206.9,129.7 208.3,130.1 209.8,130.6 211.2,131.3 212.5,132.1 213.6,133.1 214.7,134.3 215.6,135.8 216.3,137.4 216.8,139.3 
			217.1,141.5 217.1,143.9 216.9,146.6 216.4,149.6 216.2,151.8 190.1,151.8 191.7,144.8 207.4,144.8 207.4,144.8 207.5,143.9 
			207.4,143 207.4,142.2 207.2,141.5 207,140.8 206.7,140.2 206.4,139.7 206,139.2 205.6,138.7 205.1,138.4 204.6,138.1 204,137.8 
			203.5,137.6 202.9,137.4 202.3,137.3 201.6,137.2 201.6,137.2 201,137.3 200.3,137.4 199.7,137.5 199.1,137.7 198.5,138 
			198,138.3 197.4,138.7 197,139.2 196.5,139.7 196.1,140.2 195.7,140.8 195.3,141.4 195,142 194.8,142.8 194.6,143.5 194.4,144.2 
			193,151.6 		"/>
		<polygon class="st8" points="278.4,132.2 277.9,131.9 277.4,131.7 276.9,131.5 276.4,131.2 275.9,131 275.3,130.8 274.6,130.6 
			274,130.4 273.3,130.2 272.6,130 271.9,129.9 271.1,129.8 270.3,129.7 269.5,129.6 268.6,129.6 267.7,129.6 266.8,129.6 
			265.9,129.7 264.9,129.8 263.9,130 262.9,130.3 261.9,130.7 260.9,131.2 259.9,131.8 259,132.6 258,133.6 257.1,134.7 256.3,136 
			255.5,137.6 254.7,139.4 254.1,141.4 253.5,143.7 253.3,145 253.1,146.2 253.1,147.5 253.1,148.7 253.2,149.9 253.5,151.1 
			253.8,152.1 254.2,153.2 254.7,154.2 255.3,155.1 256.1,155.9 257,156.7 257.9,157.3 259,157.9 260.3,158.3 261.6,158.7 
			262.1,158.8 262.6,158.9 263.3,158.9 264,159 264.8,159.1 265.6,159.1 266.5,159.1 267.4,159 268.3,158.9 269.2,158.7 
			270.1,158.5 271,158.2 271.9,157.8 272.8,157.3 273.5,156.8 274.2,156.1 272.6,165.7 272.4,165.8 272.2,166.1 271.9,166.3 
			271.6,166.5 271.2,166.8 270.7,167.1 270.1,167.3 269.5,167.5 268.6,167.8 267.7,168 266.6,168.1 265.4,168.2 264,168.3 
			262.4,168.4 260.5,168.3 258.5,168.2 256.9,168 255.2,167.7 253.6,167.1 251.9,166.4 250.4,165.6 248.9,164.5 247.4,163.2 
			246.1,161.8 244.9,160.2 243.9,158.4 243.1,156.4 242.4,154.2 242,151.8 241.9,149.3 241.9,146.5 242.3,143.5 242.6,142 
			242.9,140.6 243.3,139.2 243.6,137.9 244,136.6 244.5,135.4 245,134.2 245.5,133.1 246,132 246.5,130.9 247.1,129.9 247.8,129 
			248.4,128.1 249.2,127.2 249.9,126.5 250.6,125.7 251.4,125 252.3,124.3 253.1,123.7 254,123.1 255,122.6 256,122.1 257,121.7 
			258,121.3 259.1,120.9 260.2,120.7 261.4,120.4 262.6,120.2 263.8,120 265.1,119.9 266.4,119.8 267.7,119.8 268.9,119.8 
			270,119.9 271.1,120 272.1,120.1 273.1,120.3 274.1,120.5 275,120.7 275.9,120.9 276.7,121.1 277.4,121.3 278.1,121.5 
			278.7,121.7 279.2,121.9 279.6,122.1 279.9,122.2 280.2,122.3 278.4,132.2 		"/>
		<polyline class="st9" points="278.4,132.2 278.4,132.2 277.9,131.9 277.4,131.7 276.9,131.5 276.4,131.2 275.9,131 275.3,130.8 
			274.6,130.6 274,130.4 273.3,130.2 272.6,130 271.9,129.9 271.1,129.8 270.3,129.7 269.5,129.6 268.6,129.6 267.7,129.6 
			267.7,129.6 266.8,129.6 265.9,129.7 264.9,129.8 263.9,130 262.9,130.3 261.9,130.7 260.9,131.2 259.9,131.8 259,132.6 
			258,133.6 257.1,134.7 256.3,136 255.5,137.6 254.7,139.4 254.1,141.4 253.5,143.7 253.5,143.7 253.3,145 253.1,146.2 
			253.1,147.5 253.1,148.7 253.2,149.9 253.5,151.1 253.8,152.1 254.2,153.2 254.7,154.2 255.3,155.1 256.1,155.9 257,156.7 
			257.9,157.3 259,157.9 260.3,158.3 261.6,158.7 261.6,158.7 262.1,158.8 262.6,158.9 263.3,158.9 264,159 264.8,159.1 
			265.6,159.1 266.5,159.1 267.4,159 268.3,158.9 269.2,158.7 270.1,158.5 271,158.2 271.9,157.8 272.8,157.3 273.5,156.8 
			274.2,156.1 272.6,165.7 272.6,165.7 272.4,165.8 272.2,166.1 271.9,166.3 271.6,166.5 271.2,166.8 270.7,167.1 270.1,167.3 
			269.5,167.5 268.6,167.8 267.7,168 266.6,168.1 265.4,168.2 264,168.3 262.4,168.4 260.5,168.3 258.5,168.2 258.5,168.2 
			256.9,168 255.2,167.7 253.6,167.1 251.9,166.4 250.4,165.6 248.9,164.5 247.4,163.2 246.1,161.8 244.9,160.2 243.9,158.4 
			243.1,156.4 242.4,154.2 242,151.8 241.9,149.3 241.9,146.5 242.3,143.5 242.3,143.5 242.6,142 242.9,140.6 243.3,139.2 
			243.6,137.9 244,136.6 244.5,135.4 245,134.2 245.5,133.1 246,132 246.5,130.9 247.1,129.9 247.8,129 248.4,128.1 249.2,127.2 
			249.9,126.5 250.6,125.7 251.4,125 252.3,124.3 253.1,123.7 254,123.1 255,122.6 256,122.1 257,121.7 258,121.3 259.1,120.9 
			260.2,120.7 261.4,120.4 262.6,120.2 263.8,120 265.1,119.9 266.4,119.8 267.7,119.8 267.7,119.8 268.9,119.8 270,119.9 
			271.1,120 272.1,120.1 273.1,120.3 274.1,120.5 275,120.7 275.9,120.9 276.7,121.1 277.4,121.3 278.1,121.5 278.7,121.7 
			279.2,121.9 279.6,122.1 279.9,122.2 280.2,122.3 278.4,132.2 		"/>
		<polygon class="st8" points="366.5,168.4 356.6,168.4 357.3,164.4 357.3,164.1 356.8,164.8 356.1,165.4 355.5,166 354.9,166.5 
			354.2,167 353.6,167.4 353,167.7 352.3,168 351.6,168.2 350.9,168.4 350.2,168.6 349.5,168.7 348.8,168.8 348.1,168.9 
			347.4,168.9 346.7,168.9 344.8,168.8 343.1,168.4 341.5,167.8 340.1,167 338.8,165.9 337.7,164.7 336.7,163.4 335.8,161.9 
			335.1,160.3 334.5,158.6 334.1,156.8 333.8,155 333.7,153.2 333.8,151.3 333.9,149.5 334.3,147.7 334.8,145.5 335.4,143.5 
			336.2,141.7 337.1,140 338,138.4 339.1,137 340.2,135.7 341.4,134.5 342.6,133.4 344,132.5 345.3,131.8 346.7,131.2 348.1,130.7 
			349.6,130.3 351,130.1 352.5,130 353.5,130.1 354.5,130.2 355.4,130.4 356.3,130.6 357.1,130.9 357.8,131.2 358.5,131.6 
			359.2,132 359.8,132.4 360.3,132.9 360.8,133.4 361.2,133.8 361.5,134.3 361.9,134.8 362.2,135.2 362.4,135.6 362.4,135.6 
			364.9,121.6 374.6,121.6 366.5,168.4 		"/>
		<polyline class="st9" points="366.5,168.4 356.6,168.4 357.3,164.4 357.3,164.1 357.3,164.1 356.8,164.8 356.1,165.4 355.5,166 
			354.9,166.5 354.2,167 353.6,167.4 353,167.7 352.3,168 351.6,168.2 350.9,168.4 350.2,168.6 349.5,168.7 348.8,168.8 
			348.1,168.9 347.4,168.9 346.7,168.9 346.7,168.9 344.8,168.8 343.1,168.4 341.5,167.8 340.1,167 338.8,165.9 337.7,164.7 
			336.7,163.4 335.8,161.9 335.1,160.3 334.5,158.6 334.1,156.8 333.8,155 333.7,153.2 333.8,151.3 333.9,149.5 334.3,147.7 
			334.3,147.7 334.8,145.5 335.4,143.5 336.2,141.7 337.1,140 338,138.4 339.1,137 340.2,135.7 341.4,134.5 342.6,133.4 344,132.5 
			345.3,131.8 346.7,131.2 348.1,130.7 349.6,130.3 351,130.1 352.5,130 352.5,130 353.5,130.1 354.5,130.2 355.4,130.4 
			356.3,130.6 357.1,130.9 357.8,131.2 358.5,131.6 359.2,132 359.8,132.4 360.3,132.9 360.8,133.4 361.2,133.8 361.5,134.3 
			361.9,134.8 362.2,135.2 362.4,135.6 362.4,135.6 364.9,121.6 374.6,121.6 366.5,168.4 		"/>
		<polygon class="st6" points="350.3,159.7 351.3,159.7 352.2,159.4 353.1,159.2 353.9,158.8 354.7,158.4 355.4,157.8 356.1,157.2 
			356.7,156.6 357.2,155.9 357.7,155.1 358.2,154.2 358.6,153.4 358.9,152.5 359.2,151.6 359.5,150.6 359.7,149.6 359.8,148.6 
			359.9,147.6 359.9,146.6 359.9,145.6 359.8,144.7 359.7,143.8 359.4,142.9 359.1,142.1 358.8,141.4 358.3,140.7 357.9,140.1 
			357.3,139.6 356.7,139.2 356.1,138.9 355.4,138.7 354.6,138.7 353.7,138.7 352.8,138.9 352,139.2 351.1,139.5 350.4,140 
			349.7,140.6 349.1,141.2 348.5,141.9 347.9,142.6 347.4,143.5 347,144.3 346.6,145.3 346.2,146.2 345.9,147.2 345.7,148.2 
			345.4,149.3 345.3,150.8 345.3,152.6 345.6,154.3 346,156 346.8,157.5 347.7,158.7 348.9,159.4 350.3,159.7 		"/>
		<polygon class="st8" points="130.4,160.4 129,168.4 120,168.4 120.2,166.9 120.4,165.6 120.5,164.6 120.7,164.1 120.2,164.6 
			119.6,165.2 118.9,165.7 118.2,166.2 117.3,166.7 116.4,167.2 115.5,167.6 114.5,168 113.5,168.3 112.5,168.5 111.4,168.7 
			110.3,168.9 109.3,169 108.3,169 107.3,168.9 106.3,168.7 105,168.4 103.9,168.1 102.9,167.6 102,167.1 101.2,166.5 100.5,165.8 
			99.9,165.2 99.4,164.5 99,163.7 98.6,162.9 98.3,162.1 98.1,161.3 98,160.5 97.9,159.7 97.8,158.9 97.8,158.1 97.9,156.7 
			98.1,155.4 98.5,154.1 99,152.9 99.5,151.8 100.2,150.7 100.9,149.7 101.8,148.8 102.7,148 103.7,147.3 104.7,146.6 105.8,146 
			106.9,145.5 108.1,145.1 109.3,144.8 110.6,144.6 110.7,144.6 110.8,144.5 111.1,144.5 111.5,144.5 111.9,144.4 112.4,144.4 
			113,144.3 113.6,144.2 114.2,144.1 114.8,144.1 115.4,144 116,144 116.6,143.9 117.1,143.9 117.6,143.9 118,143.9 118.8,143.9 
			119.7,143.9 120.5,143.9 121.3,143.9 121.9,144 122.4,144 122.8,144 122.9,144 122.9,143.8 123.2,143.1 123.3,142.4 123.4,141.7 
			123.3,140.9 122.9,140.2 122.5,139.6 121.9,139 121.3,138.6 120.5,138.2 119.6,138 118.7,138 117.7,137.9 116.6,137.9 
			115.5,137.9 114.4,137.9 113.2,138 112.1,138.1 110.9,138.2 109.8,138.3 108.7,138.5 107.7,138.7 106.8,138.9 105.9,139 
			105.1,139.2 104.5,139.5 104,139.7 103.6,139.9 106.1,131.3 106.9,131 107.7,130.7 108.5,130.4 109.4,130.3 110.3,130.1 
			111.2,129.9 112.1,129.8 113.1,129.7 114.1,129.6 115.1,129.6 116.2,129.6 117.3,129.6 118.5,129.6 119.6,129.6 120.9,129.6 
			122.2,129.6 123.2,129.7 124.2,129.9 125.3,130.1 126.5,130.5 127.6,130.9 128.7,131.4 129.7,132 130.7,132.7 131.6,133.5 
			132.4,134.3 133.1,135.3 133.7,136.4 134,137.5 134.3,138.7 134.3,140.1 134,141.5 130.4,160.4 		"/>
		<polyline class="st9" points="130.4,160.4 129,168.4 120,168.4 120,168.4 120.2,166.9 120.4,165.6 120.5,164.6 120.7,164.1 
			120.7,164.1 120.2,164.6 119.6,165.2 118.9,165.7 118.2,166.2 117.3,166.7 116.4,167.2 115.5,167.6 114.5,168 113.5,168.3 
			112.5,168.5 111.4,168.7 110.3,168.9 109.3,169 108.3,169 107.3,168.9 106.3,168.7 106.3,168.7 105,168.4 103.9,168.1 
			102.9,167.6 102,167.1 101.2,166.5 100.5,165.8 99.9,165.2 99.4,164.5 99,163.7 98.6,162.9 98.3,162.1 98.1,161.3 98,160.5 
			97.9,159.7 97.8,158.9 97.8,158.1 97.8,158.1 97.9,156.7 98.1,155.4 98.5,154.1 99,152.9 99.5,151.8 100.2,150.7 100.9,149.7 
			101.8,148.8 102.7,148 103.7,147.3 104.7,146.6 105.8,146 106.9,145.5 108.1,145.1 109.3,144.8 110.6,144.6 110.6,144.6 
			110.7,144.6 110.8,144.5 111.1,144.5 111.5,144.5 111.9,144.4 112.4,144.4 113,144.3 113.6,144.2 114.2,144.1 114.8,144.1 
			115.4,144 116,144 116.6,143.9 117.1,143.9 117.6,143.9 118,143.9 118,143.9 118.8,143.9 119.7,143.9 120.5,143.9 121.3,143.9 
			121.9,144 122.4,144 122.8,144 122.9,144 122.9,144 122.9,143.8 123.2,143.1 123.3,142.4 123.4,141.7 123.4,141.7 123.3,140.9 
			122.9,140.2 122.5,139.6 121.9,139 121.3,138.6 120.5,138.2 119.6,138 118.7,138 118.7,138 117.7,137.9 116.6,137.9 115.5,137.9 
			114.4,137.9 113.2,138 112.1,138.1 110.9,138.2 109.8,138.3 108.7,138.5 107.7,138.7 106.8,138.9 105.9,139 105.1,139.2 
			104.5,139.5 104,139.7 103.6,139.9 106.1,131.3 106.1,131.3 106.9,131 107.7,130.7 108.5,130.4 109.4,130.3 110.3,130.1 
			111.2,129.9 112.1,129.8 113.1,129.7 114.1,129.6 115.1,129.6 116.2,129.6 117.3,129.6 118.5,129.6 119.6,129.6 120.9,129.6 
			122.2,129.6 122.2,129.6 123.2,129.7 124.2,129.9 125.3,130.1 126.5,130.5 127.6,130.9 128.7,131.4 129.7,132 130.7,132.7 
			131.6,133.5 132.4,134.3 133.1,135.3 133.7,136.4 134,137.5 134.3,138.7 134.3,140.1 134,141.5 130.4,160.4 		"/>
		<polygon class="st7" points="121.8,151.1 121.8,150.9 121.6,150.7 121.4,150.6 121,150.6 120.7,150.5 120.2,150.5 119.6,150.5 
			119.1,150.5 118.5,150.5 117.9,150.6 117.4,150.6 116.8,150.7 116.2,150.8 115.7,150.9 115.3,151 114.9,151.1 114.7,151.2 
			114.4,151.3 114,151.4 113.6,151.6 113.1,151.8 112.7,152.1 112.2,152.3 111.7,152.6 111.2,153 110.7,153.3 110.3,153.7 
			109.9,154.2 109.6,154.6 109.3,155.1 109.1,155.7 109,156.3 108.9,157.5 109.1,158.5 109.5,159.2 109.9,159.7 110.5,160.1 
			111.1,160.3 111.7,160.4 112.2,160.4 113.3,160.4 114.3,160.3 115.2,160.2 116,159.9 116.7,159.7 117.4,159.4 118,159 
			118.6,158.7 119,158.3 119.5,157.9 119.8,157.5 120.1,157 120.4,156.6 120.6,156.2 120.8,155.8 120.9,155.4 121.2,154.4 
			121.4,153.2 121.6,152 121.8,151.1 		"/>
		<polygon class="st8" points="55.1,168.4 45.4,168.4 53.5,121.4 70.4,121.4 72,149.3 83.7,121.4 101.4,121.4 93.1,168.4 
			83.4,168.4 89.5,133.3 89.1,133.3 74.6,168.4 63.6,168.4 63.5,166.9 63.3,163 62.9,157.5 62.6,151.1 62.2,144.7 61.9,139.1 
			61.6,135 61.6,133.3 61.5,133.3 61.3,133.3 61,133.3 61,133.3 55.1,168.4 		"/>
		<polyline class="st9" points="55.1,168.4 45.4,168.4 53.5,121.4 70.4,121.4 72,149.3 83.7,121.4 101.4,121.4 93.1,168.4 
			83.4,168.4 89.5,133.3 89.1,133.3 74.6,168.4 63.6,168.4 63.6,168.4 63.5,166.9 63.3,163 62.9,157.5 62.6,151.1 62.2,144.7 
			61.9,139.1 61.6,135 61.6,133.3 61.6,133.3 61.5,133.3 61.3,133.3 61,133.3 61,133.3 55.1,168.4 		"/>
		<polygon class="st8" points="308.1,160.4 306.7,168.4 297.7,168.4 297.7,166.9 297.8,165.6 297.8,164.7 297.9,164.2 297.4,164.8 
			296.8,165.3 296.2,165.8 295.5,166.3 294.7,166.8 293.9,167.2 293,167.6 292.1,168 291.1,168.3 290.1,168.6 289.1,168.7 
			288.1,168.9 287.1,169 286.1,169 285.1,168.9 284.1,168.7 282.8,168.4 281.7,168.1 280.7,167.6 279.8,167.1 279,166.5 
			278.3,165.8 277.7,165.2 277.2,164.5 276.8,163.7 276.5,162.9 276.2,162.1 276,161.3 275.9,160.5 275.8,159.7 275.7,158.9 
			275.7,158.1 275.8,156.7 276,155.4 276.3,154.1 276.8,152.9 277.3,151.8 278,150.7 278.7,149.7 279.6,148.8 280.5,148 
			281.5,147.3 282.5,146.6 283.6,146 284.7,145.5 285.9,145.1 287.1,144.8 288.3,144.6 288.4,144.6 288.5,144.5 288.8,144.5 
			289.2,144.5 289.6,144.4 290.1,144.4 290.7,144.3 291.2,144.2 291.8,144.1 292.5,144.1 293.1,144 293.7,144 294.3,143.9 
			294.8,143.9 295.3,143.9 295.7,143.9 296.5,143.9 297.4,143.9 298.2,143.9 299,143.9 299.7,144 300.2,144 300.6,144 300.7,144 
			300.8,143.8 300.9,143.1 301,142.4 301.1,141.7 300.9,140.9 300.6,140.2 300.2,139.6 299.6,139 299,138.6 298.2,138.2 297.5,138 
			296.6,138 295.6,137.9 294.5,137.9 293.4,137.9 292.3,137.9 291.1,138 289.9,138.1 288.8,138.2 287.7,138.3 286.6,138.5 
			285.6,138.7 284.6,138.9 283.8,139 283,139.2 282.3,139.5 281.8,139.7 281.5,139.9 284,131.3 284.7,131 285.6,130.7 286.4,130.4 
			287.3,130.3 288.1,130.1 289,129.9 290,129.8 290.9,129.7 291.9,129.6 293,129.6 294,129.6 295.1,129.6 296.2,129.6 297.4,129.6 
			298.6,129.6 299.8,129.6 300.8,129.7 301.9,129.9 303,130.1 304.2,130.5 305.3,130.9 306.4,131.4 307.4,132 308.4,132.7 
			309.3,133.5 310.2,134.3 310.9,135.3 311.4,136.4 311.8,137.5 312.1,138.7 312.1,140.1 311.9,141.5 308.1,160.4 		"/>
		<polygon class="st8" points="306.7,168.6 306.9,168.4 308.3,160.5 307.9,160.4 306.4,168.4 306.7,168.1 306.7,168.6 306.8,168.6 
			306.9,168.4 306.7,168.6 		"/>
		<polygon class="st8" points="297.5,168.4 297.7,168.6 306.7,168.6 306.7,168.1 297.7,168.1 297.9,168.4 297.5,168.4 297.4,168.6 
			297.7,168.6 297.5,168.4 		"/>
		<polygon class="st8" points="298,164.4 297.7,164.1 297.6,164.7 297.5,165.6 297.5,166.9 297.5,168.4 297.9,168.4 298,166.9 
			298,165.6 298,164.7 298,164.4 297.7,164.1 298,164.4 		"/>
		<polygon class="st8" points="284.1,169 284.1,169 285.1,169.1 286.1,169.2 287.1,169.2 288.1,169.1 289.2,169 290.2,168.8 
			291.2,168.5 292.2,168.2 293.1,167.9 294,167.4 294.8,167 295.6,166.5 296.3,166 297,165.5 297.6,164.9 298,164.4 297.7,164.1 
			297.2,164.6 296.7,165.1 296.1,165.6 295.4,166.1 294.6,166.6 293.8,167 292.9,167.4 292,167.8 291.1,168.1 290.1,168.4 
			289.1,168.5 288.1,168.7 287.1,168.7 286.1,168.8 285.1,168.7 284.2,168.5 284.2,168.5 284.1,169 		"/>
		<polygon class="st8" points="275.4,158.1 275.4,158.1 275.5,158.9 275.5,159.7 275.7,160.5 275.8,161.4 276,162.2 276.3,163 
			276.6,163.8 277,164.6 277.5,165.3 278.1,166 278.8,166.7 279.7,167.2 280.6,167.8 281.6,168.3 282.8,168.6 284.1,169 
			284.2,168.5 282.9,168.2 281.8,167.9 280.8,167.4 279.9,166.9 279.1,166.3 278.5,165.7 277.9,165 277.4,164.3 277,163.6 
			276.7,162.8 276.4,162.1 276.2,161.3 276.1,160.5 276,159.7 275.9,158.9 275.9,158.1 275.9,158.1 275.4,158.1 		"/>
		<polygon class="st8" points="288.3,144.4 288.3,144.4 287,144.6 285.8,144.9 284.6,145.3 283.5,145.8 282.4,146.4 281.3,147.1 
			280.3,147.8 279.4,148.7 278.6,149.6 277.8,150.6 277.1,151.7 276.5,152.8 276.1,154.1 275.8,155.4 275.5,156.7 275.4,158.1 
			275.9,158.1 276,156.7 276.2,155.4 276.5,154.2 277,153 277.5,151.9 278.2,150.9 278.9,149.9 279.7,149 280.6,148.2 281.6,147.4 
			282.6,146.8 283.7,146.2 284.8,145.7 286,145.3 287.1,145 288.3,144.8 288.3,144.8 288.3,144.4 		"/>
		<polygon class="st8" points="295.7,143.6 295.7,143.6 295.3,143.6 294.8,143.7 294.3,143.7 293.7,143.8 293.1,143.8 292.5,143.9 
			291.8,143.9 291.2,144 290.7,144.1 290.1,144.1 289.6,144.2 289.2,144.3 288.8,144.3 288.5,144.3 288.4,144.4 288.3,144.4 
			288.3,144.8 288.4,144.8 288.6,144.8 288.8,144.7 289.2,144.7 289.6,144.6 290.1,144.6 290.7,144.5 291.2,144.4 291.8,144.4 
			292.5,144.3 293.1,144.3 293.7,144.2 294.3,144.1 294.8,144.1 295.3,144.1 295.7,144.1 295.7,144.1 295.7,143.6 		"/>
		<polygon class="st8" points="300.5,144 300.7,143.8 300.6,143.8 300.2,143.8 299.7,143.8 299,143.7 298.2,143.7 297.4,143.7 
			296.5,143.6 295.7,143.6 295.7,144.1 296.5,144.1 297.4,144.1 298.2,144.2 299,144.2 299.7,144.2 300.2,144.2 300.6,144.3 
			300.7,144.3 300.9,144.1 300.7,144.3 300.9,144.3 300.9,144.1 300.5,144 		"/>
		<polygon class="st8" points="300.9,141.7 300.8,141.7 300.8,142.4 300.7,143.1 300.6,143.8 300.5,144 300.9,144.1 301,143.8 
			301.1,143.2 301.2,142.4 301.3,141.7 301.3,141.7 300.9,141.7 		"/>
		<polygon class="st8" points="296.6,138.2 296.6,138.2 297.4,138.2 298.2,138.5 298.9,138.8 299.5,139.2 300,139.7 300.4,140.3 
			300.7,141 300.9,141.7 301.3,141.7 301.1,140.9 300.9,140.1 300.4,139.4 299.8,138.9 299.1,138.3 298.3,138 297.5,137.8 
			296.6,137.7 296.6,137.7 296.6,138.2 		"/>
		<polygon class="st8" points="281.2,139.9 281.6,140.1 282,139.9 282.4,139.7 283,139.5 283.8,139.2 284.7,139.1 285.6,138.9 
			286.6,138.7 287.7,138.6 288.8,138.4 289.9,138.3 291.1,138.2 292.3,138.1 293.4,138.1 294.5,138.1 295.6,138.1 296.6,138.2 
			296.6,137.7 295.6,137.7 294.5,137.6 293.4,137.6 292.3,137.7 291.1,137.8 289.9,137.9 288.8,138 287.7,138.1 286.6,138.3 
			285.5,138.5 284.6,138.6 283.7,138.8 283,139 282.3,139.2 281.7,139.5 281.3,139.7 281.7,140 281.2,139.9 		"/>
		<polygon class="st8" points="283.9,131.1 283.7,131.3 281.2,139.9 281.7,140 284.2,131.3 284,131.5 283.9,131.1 283.8,131.1 
			283.7,131.3 283.9,131.1 		"/>
		<polygon class="st8" points="299.8,129.4 299.8,129.4 298.6,129.4 297.4,129.3 296.2,129.3 295.1,129.3 294,129.3 293,129.4 
			291.9,129.4 290.9,129.5 290,129.6 289,129.7 288.1,129.9 287.2,130 286.4,130.2 285.5,130.5 284.7,130.8 283.9,131.1 284,131.5 
			284.8,131.2 285.6,130.9 286.4,130.7 287.3,130.5 288.2,130.3 289.1,130.1 290,130 290.9,129.9 291.9,129.9 293,129.8 294,129.8 
			295.1,129.8 296.2,129.8 297.4,129.8 298.6,129.9 299.8,129.9 299.8,129.9 299.8,129.4 		"/>
		<polygon class="st8" points="312.1,141.6 312.1,141.6 312.3,140.1 312.3,138.7 312,137.5 311.6,136.3 311.1,135.2 310.3,134.2 
			309.5,133.3 308.6,132.5 307.6,131.8 306.5,131.2 305.3,130.7 304.2,130.3 303,129.9 301.9,129.7 300.8,129.5 299.8,129.4 
			299.8,129.9 300.8,129.9 301.9,130.1 303,130.4 304.1,130.7 305.2,131.1 306.3,131.6 307.3,132.2 308.3,132.9 309.2,133.7 
			310,134.5 310.7,135.4 311.2,136.5 311.6,137.6 311.9,138.7 311.9,140.1 311.7,141.5 311.7,141.5 312.1,141.6 		"/>
		<polygon class="st8" points="308.3,160.5 308.3,160.5 312.1,141.6 311.7,141.5 307.9,160.4 307.9,160.4 308.3,160.5 		"/>
		<polygon class="st6" points="299.5,151.1 299.4,150.9 299.2,150.7 299,150.6 298.6,150.5 298.2,150.5 297.8,150.4 297.2,150.4 
			296.7,150.5 296.1,150.5 295.6,150.6 295,150.7 294.4,150.7 293.9,150.8 293.4,150.9 293,151 292.6,151.1 292.4,151.1 
			292.1,151.2 291.7,151.3 291.3,151.5 290.9,151.7 290.4,151.9 289.9,152.2 289.5,152.5 289,152.8 288.5,153.2 288.1,153.6 
			287.8,154.1 287.4,154.6 287.2,155.1 287,155.7 286.9,156.3 286.8,157.5 287,158.5 287.3,159.2 287.7,159.7 288.3,160.1 
			288.9,160.3 289.5,160.4 290.1,160.4 291.2,160.4 292.2,160.3 293.1,160.1 293.9,159.9 294.7,159.6 295.4,159.3 296,158.9 
			296.6,158.5 297.1,158.1 297.5,157.6 297.9,157.2 298.2,156.7 298.5,156.3 298.7,155.9 298.8,155.4 298.9,155 299.1,154 
			299.2,153 299.4,152 299.5,151.1 		"/>
		<polygon class="st8" points="373.2,163.5 373.3,162.7 373.6,161.7 374.1,160.8 374.7,160.1 375.4,159.5 376.3,159 377.2,158.8 
			378.2,158.7 379.2,158.8 380.2,159 381,159.5 381.8,160.1 382.4,160.8 382.9,161.7 383.2,162.7 383.2,163.5 382.2,163.5 
			382.1,162.8 381.9,162.1 381.6,161.3 381.1,160.7 380.5,160.2 379.8,159.9 379.1,159.6 378.2,159.5 377.4,159.6 376.6,159.9 
			375.9,160.2 375.4,160.7 374.9,161.3 374.5,162.1 374.3,162.8 374.3,163.5 373.2,163.5 		"/>
		<polygon class="st8" points="376.4,163.5 376.4,161.3 378.4,161.3 378.8,161.4 379.2,161.4 379.5,161.6 379.8,161.7 380,161.9 
			380.1,162.1 380.2,162.4 380.2,162.6 380.2,162.9 380.1,163.2 380,163.4 379.9,163.5 378.4,163.5 378.6,163.4 378.8,163.4 
			379,163.3 379.2,163.3 379.3,163.2 379.4,163.1 379.5,162.9 379.5,162.6 379.5,162.4 379.4,162.3 379.3,162.2 379.2,162.2 
			379,162.1 378.8,162.1 378.6,162.1 378.4,162.1 377.3,162.1 377.3,163.5 376.4,163.5 		"/>
		<polygon class="st8" points="373.2,163.5 373.2,163.7 373.3,164.7 373.6,165.7 374.1,166.6 374.7,167.3 375.4,167.9 376.3,168.4 
			377.2,168.6 378.2,168.7 379.2,168.6 380.2,168.4 381,167.9 381.8,167.3 382.4,166.6 382.9,165.7 383.2,164.7 383.3,163.7 
			383.2,163.5 382.2,163.5 382.2,163.7 382.1,164.6 381.9,165.3 381.6,166 381.1,166.6 380.5,167.1 379.8,167.5 379.1,167.8 
			378.2,167.9 377.4,167.8 376.6,167.5 375.9,167.1 375.4,166.6 374.9,166 374.5,165.3 374.3,164.6 374.3,163.7 374.3,163.5 
			373.2,163.5 		"/>
		<polygon class="st8" points="376.4,163.5 376.4,165.7 377.3,165.7 377.3,163.9 378.2,163.9 379.3,165.7 380,165.7 378.9,163.9 
			379.2,163.9 379.5,163.8 379.7,163.7 379.8,163.6 379.9,163.5 378.4,163.5 378.2,163.5 377.3,163.5 377.3,163.5 376.4,163.5 		"/>
		<path class="st9" d="M373.2,163.7L373.2,163.7l0.1-1l0.3-1l0.5-0.9l0.6-0.8l0.8-0.6l0.9-0.4l0.9-0.3l1-0.1l0,0l1,0.1l0.9,0.3
			l0.9,0.4l0.8,0.6l0.6,0.8l0.5,0.9l0.3,1l0.1,1l0,0l-0.1,1l-0.3,1l-0.5,0.9l-0.6,0.7l-0.8,0.6l-0.9,0.5l-0.9,0.3l-1,0.1l0,0l-1-0.1
			l-0.9-0.3l-0.9-0.5l-0.8-0.6l-0.6-0.7l-0.5-0.9l-0.3-1L373.2,163.7 M377.3,165.7h-0.9v-4.3h2l0,0h0.4l0.4,0.1l0.3,0.1l0.2,0.1
			l0.2,0.2l0.1,0.2l0.1,0.2v0.3l0,0v0.3l-0.1,0.2l-0.1,0.2l-0.1,0.2l-0.2,0.1l-0.2,0.1l-0.3,0.1h-0.3l1.1,1.8h-0.7l-1.1-1.8h-0.9
			v1.9 M378.2,163.5L378.2,163.5l0.3-0.1h0.3l0.2-0.1l0.2-0.1l0.1-0.1l0.1-0.1l0.1-0.2v-0.3l0,0v-0.2l-0.1-0.1l-0.1-0.1l-0.1-0.1
			H379h-0.2h-0.2h-0.2h-1.1v1.4h0.9 M378.2,167.9L378.2,167.9l0.8-0.1l0.8-0.3l0.7-0.4l0.6-0.5l0.5-0.6l0.4-0.7l0.2-0.8l0.1-0.9l0,0
			l-0.1-0.9l-0.2-0.8l-0.4-0.7l-0.5-0.6l-0.6-0.5l-0.7-0.4l-0.8-0.3l-0.8-0.1l0,0l-0.8,0.1l-0.8,0.3l-0.7,0.4l-0.6,0.5l-0.5,0.6
			l-0.4,0.7l-0.2,0.8l-0.1,0.9l0,0l0.1,0.9l0.2,0.8l0.4,0.7l0.5,0.6l0.6,0.5l0.7,0.4l0.8,0.3L378.2,167.9"/>
		<polygon class="st8" points="310.8,168.4 320.9,168.4 320.9,168.4 324.5,148 324.7,147.2 324.9,146.4 325.1,145.7 325.4,144.9 
			325.7,144.1 326.2,143.3 326.6,142.6 327.2,141.9 327.9,141.3 328.6,140.7 329.4,140.2 330.3,139.8 331.4,139.4 332.5,139.1 
			333.8,138.9 335.2,138.9 335.7,138.9 335.9,138.9 336.1,138.9 336.1,138.9 337.7,129.6 336.7,129.7 335.7,129.8 334.8,130 
			333.9,130.3 333.2,130.5 332.4,130.9 331.7,131.3 331,131.7 330.4,132.2 329.8,132.7 329.2,133.3 328.6,133.9 328.1,134.5 
			327.5,135.2 327,135.8 326.5,136.5 327.6,130 317.5,130 310.8,168.4 310.8,168.4 		"/>
		<polyline class="st9" points="310.8,168.4 320.9,168.4 320.9,168.4 324.5,148 324.5,148 324.7,147.2 324.9,146.4 325.1,145.7 
			325.4,144.9 325.7,144.1 326.2,143.3 326.6,142.6 327.2,141.9 327.9,141.3 328.6,140.7 329.4,140.2 330.3,139.8 331.4,139.4 
			332.5,139.1 333.8,138.9 335.2,138.9 335.2,138.9 335.7,138.9 335.9,138.9 336.1,138.9 336.1,138.9 337.7,129.6 337.7,129.6 
			336.7,129.7 335.7,129.8 334.8,130 333.9,130.3 333.2,130.5 332.4,130.9 331.7,131.3 331,131.7 330.4,132.2 329.8,132.7 
			329.2,133.3 328.6,133.9 328.1,134.5 327.5,135.2 327,135.8 326.5,136.5 327.6,130 317.5,130 310.8,168.4 310.8,168.4 		"/>
		<polygon class="st8" points="216,168.4 226.1,168.4 226.3,168.4 229.7,148 229.9,147.2 230,146.5 230.2,145.7 230.5,145 
			230.8,144.3 231.1,143.6 231.5,143 232,142.4 232.6,141.8 233.3,141.3 234,140.9 234.9,140.5 235.9,140.1 237,139.9 238.2,139.7 
			239.6,139.6 239.7,139.6 239.9,139.6 240.1,139.6 240.2,139.6 240.4,139.7 240.6,139.7 240.7,139.7 240.7,139.7 240.7,139.6 
			240.8,139.2 241,138.5 241.2,137.7 241.4,136.8 241.7,135.8 242,134.8 242.3,133.8 242.6,133.1 243,132.4 243.3,131.8 
			243.7,131.2 244,130.6 244.3,130.2 244.4,129.9 244.5,129.8 244.5,129.8 244.3,129.8 244.1,129.8 243.9,129.7 243.6,129.7 
			243.4,129.7 243.1,129.6 242.9,129.6 241.7,129.7 240.7,129.8 239.8,130 239,130.2 238.1,130.5 237.4,130.9 236.7,131.2 
			236.1,131.7 235.4,132.1 234.9,132.7 234.3,133.2 233.8,133.8 233.3,134.4 232.8,135.1 232.2,135.8 231.7,136.5 233,130 
			222.7,130 216,168.4 216,168.4 		"/>
		<polyline class="st9" points="216,168.4 226.1,168.4 226.3,168.4 229.7,148 229.7,148 229.9,147.2 230,146.5 230.2,145.7 
			230.5,145 230.8,144.3 231.1,143.6 231.5,143 232,142.4 232.6,141.8 233.3,141.3 234,140.9 234.9,140.5 235.9,140.1 237,139.9 
			238.2,139.7 239.6,139.6 239.6,139.6 239.7,139.6 239.9,139.6 240.1,139.6 240.2,139.6 240.4,139.7 240.6,139.7 240.7,139.7 
			240.7,139.7 240.7,139.7 240.7,139.6 240.8,139.2 241,138.5 241.2,137.7 241.4,136.8 241.7,135.8 242,134.8 242.3,133.8 
			242.3,133.8 242.6,133.1 243,132.4 243.3,131.8 243.7,131.2 244,130.6 244.3,130.2 244.4,129.9 244.5,129.8 244.5,129.8 
			244.5,129.8 244.3,129.8 244.1,129.8 243.9,129.7 243.6,129.7 243.4,129.7 243.1,129.6 242.9,129.6 242.9,129.6 241.7,129.7 
			240.7,129.8 239.8,130 239,130.2 238.1,130.5 237.4,130.9 236.7,131.2 236.1,131.7 235.4,132.1 234.9,132.7 234.3,133.2 
			233.8,133.8 233.3,134.4 232.8,135.1 232.2,135.8 231.7,136.5 233,130 222.7,130 216,168.4 216,168.4 		"/>
		<polygon class="st6" points="373.3,206.1 373.3,205.9 373.6,205 374.1,204.2 374.7,203.4 375.4,202.9 376.3,202.4 377.2,202.2 
			378.2,202.1 379.2,202.2 380.2,202.4 381,202.9 381.8,203.4 382.4,204.2 382.9,205 383.2,205.9 383.2,206.1 382.1,206.1 
			381.9,205.3 381.6,204.6 381.1,204 380.5,203.5 379.8,203.1 379.1,202.9 378.2,202.8 377.4,202.9 376.6,203.1 375.9,203.5 
			375.4,204 374.9,204.6 374.5,205.3 374.3,206.1 373.3,206.1 		"/>
		<polygon class="st6" points="376.4,206.1 376.4,204.8 378.4,204.8 378.8,204.8 379.2,204.9 379.5,204.9 379.8,205.1 380,205.3 
			380.1,205.5 380.2,205.7 380.2,206.1 379.5,206.1 379.5,205.9 379.5,205.7 379.4,205.6 379.3,205.5 379.2,205.4 379,205.4 
			378.8,205.3 378.6,205.3 378.4,205.3 377.3,205.3 377.3,206.1 376.4,206.1 		"/>
		<polygon class="st6" points="373.2,206.8 373.3,206.1 374.3,206.1 374.3,206.1 374.3,206.8 373.2,206.8 		"/>
		<polygon class="st6" points="376.4,206.8 376.4,206.1 377.3,206.1 377.3,206.8 378.2,206.8 378.6,206.7 378.8,206.7 379,206.6 
			379.2,206.5 379.3,206.4 379.4,206.3 379.5,206.1 379.5,206.1 380.2,206.1 380.2,206.1 380.2,206.3 380.1,206.5 380,206.7 
			379.8,206.8 376.4,206.8 		"/>
		<polygon class="st6" points="382.2,206.8 382.1,206.1 382.1,206.1 383.2,206.1 383.3,206.8 382.2,206.8 		"/>
		<polygon class="st6" points="373.2,206.8 373.2,207 373.3,208 373.6,209 374.1,209.8 374.7,210.6 375.4,211.2 376.3,211.6 
			377.2,211.9 378.2,212 379.2,211.9 380.2,211.6 381,211.2 381.8,210.6 382.4,209.8 382.9,209 383.2,208 383.3,207 383.3,206.8 
			382.2,206.8 382.2,207 382.1,207.8 381.9,208.6 381.6,209.3 381.1,209.9 380.5,210.4 379.8,210.8 379.1,211 378.2,211.1 
			377.4,211 376.6,210.8 375.9,210.4 375.4,209.9 374.9,209.3 374.5,208.6 374.3,207.8 374.3,207 374.3,206.8 373.2,206.8 		"/>
		<polygon class="st6" points="376.4,206.8 376.4,208.9 377.3,208.9 377.3,207.1 378.2,207.1 379.3,208.9 380,208.9 378.9,207.1 
			379.2,207.1 379.5,207.1 379.7,207 379.8,206.8 379.8,206.8 376.4,206.8 		"/>
	</g>
</g>
<g>
	
		<linearGradient id="SVGID_1_" gradientUnits="userSpaceOnUse" x1="-231.8517" y1="13.2162" x2="-229.5157" y2="11.7474" gradientTransform="matrix(10.2689 0 0 11.1983 2716.8408 14.2924)">
		<stop  offset="0" style="stop-color:#22AEC3"/>
		<stop  offset="0.7072" style="stop-color:#40B38D"/>
	</linearGradient>
	<path class="st10" d="M334.6,170.2l-0.8-0.7c-2-1.7-2.3-4.8-0.5-6.8l21.3-24.3c1.7-2,4.8-2.3,6.8-0.5l0.8,0.7
		c2,1.7,2.3,4.8,0.5,6.8l-21.3,24.3C339.7,171.7,336.7,171.9,334.6,170.2z"/>
	
		<linearGradient id="SVGID_2_" gradientUnits="userSpaceOnUse" x1="-56.0384" y1="24.1178" x2="-55.6655" y2="23.3717" gradientTransform="matrix(2.3509 0 0 5.632 483.3082 13.0749)">
		<stop  offset="0" style="stop-color:#203F1E;stop-opacity:0"/>
		<stop  offset="1" style="stop-color:#203F1E"/>
	</linearGradient>
	<path class="st11" d="M351.7,142.6l-0.4-0.5l-3.3,3.7l0.3,0.4c5.6,5.6,3.2,11.3,1.9,13.3l0.5-0.5c0.8-0.9,1.9-2.2,3.2-3.7
		C355.2,153.2,357,147.9,351.7,142.6z"/>
	
		<radialGradient id="SVGID_3_" cx="284.6899" cy="151.4058" r="15.4043" gradientTransform="matrix(0.926 0 0 0.9257 83.3358 12.8248)" gradientUnits="userSpaceOnUse">
		<stop  offset="0.4185" style="stop-color:#203F1E;stop-opacity:0"/>
		<stop  offset="1" style="stop-color:#203F1E"/>
	</radialGradient>
	<path class="st12" d="M358.7,149.9l0.9-1c0.1-0.1,0.2-0.2,0.2-0.4c-0.9,1.1-1.9,2.2-2.9,3.3C357.6,151.1,358.2,150.5,358.7,149.9z"
		/>
	
		<linearGradient id="SVGID_4_" gradientUnits="userSpaceOnUse" x1="-231.7897" y1="8.457" x2="-229.9675" y2="9.9388" gradientTransform="matrix(10.2748 0 0 13.6661 2718.552 8.0017)">
		<stop  offset="0" style="stop-color:#A1C85A"/>
		<stop  offset="1" style="stop-color:#79BC60"/>
	</linearGradient>
	<path class="st13" d="M362.8,139.2l-21.3-24.3c-1.7-2-4.8-2.3-6.8-0.5l-0.8,0.7c-2,1.7-2.3,4.8-0.5,6.8l18,20.4l0.4,0.5
		c5.3,5.3,3.5,10.6,2.2,12.8c1.1-1.2,2.1-2.5,3.1-3.6c0.9-1.1,1.9-2.2,2.9-3.3c0.9-1.1,1.8-2,2.4-2.7
		C364.3,143.9,364.6,141.2,362.8,139.2L362.8,139.2z"/>
	<g>
		
			<linearGradient id="SVGID_5_" gradientUnits="userSpaceOnUse" x1="-230.071" y1="13.2164" x2="-227.735" y2="11.7476" gradientTransform="matrix(10.2686 0 0 11.1983 2725.4834 14.2924)">
			<stop  offset="0" style="stop-color:#22AEC3"/>
			<stop  offset="0.7072" style="stop-color:#40B38D"/>
		</linearGradient>
		<path class="st14" d="M361.6,170.2l-0.8-0.7c-2-1.7-2.3-4.8-0.5-6.8l21.3-24.3c1.7-2,4.8-2.3,6.8-0.5l0.8,0.7
			c2,1.7,2.3,4.8,0.5,6.8l-21.3,24.3C366.7,171.7,363.7,171.9,361.6,170.2z"/>
		
			<linearGradient id="SVGID_6_" gradientUnits="userSpaceOnUse" x1="-48.2882" y1="24.0839" x2="-47.9152" y2="23.3378" gradientTransform="matrix(2.3518 0 0 5.632 492.3668 13)">
			<stop  offset="0" style="stop-color:#203F1E;stop-opacity:0"/>
			<stop  offset="1" style="stop-color:#203F1E"/>
		</linearGradient>
		<path class="st15" d="M378.9,142.4l-0.4-0.5l-3.3,3.7l0.4,0.4c5.6,5.6,3.2,11.3,1.9,13.3l0.5-0.5c0.8-0.9,1.9-2.2,3.2-3.7
			C382.4,152.9,384.3,147.7,378.9,142.4z"/>
		
			<radialGradient id="SVGID_7_" cx="304.4335" cy="151.4058" r="15.4043" gradientTransform="matrix(0.926 0 0 0.9257 92.0478 12.8248)" gradientUnits="userSpaceOnUse">
			<stop  offset="0.4185" style="stop-color:#203F1E;stop-opacity:0"/>
			<stop  offset="1" style="stop-color:#203F1E"/>
		</radialGradient>
		<path class="st16" d="M385.7,149.9l0.9-1c0.1-0.1,0.2-0.2,0.2-0.4c-0.9,1.1-1.9,2.2-2.9,3.3C384.6,151.1,385.3,150.5,385.7,149.9z
			"/>
		
			<linearGradient id="SVGID_8_" gradientUnits="userSpaceOnUse" x1="-230.0105" y1="8.4557" x2="-228.1884" y2="9.9374" gradientTransform="matrix(10.2748 0 0 13.6671 2727.2642 8.0021)">
			<stop  offset="0" style="stop-color:#A1C85A"/>
			<stop  offset="1" style="stop-color:#79BC60"/>
		</linearGradient>
		<path class="st17" d="M389.8,139.2l-21.3-24.3c-1.7-2-4.8-2.3-6.8-0.5l-0.8,0.7c-2,1.7-2.3,4.8-0.5,6.8l18,20.4l0.4,0.5
			c5.3,5.3,3.5,10.6,2.2,12.8c1.1-1.2,2.1-2.5,3.1-3.6c0.9-1.1,1.9-2.2,2.9-3.3c0.9-1.1,1.8-2,2.4-2.7
			C391.3,143.9,391.6,141.2,389.8,139.2L389.8,139.2z"/>
	</g>
</g>
<path class="st18" d="M128.7,112.9c5.6,0,10.5,1.2,14.6,3.6c4.2,2.5,7.3,5.9,9.5,10.3c2.2,4.4,3.3,9.7,3.3,15.7
	c0,6.5-1.3,12.2-3.9,16.8c-2.6,4.7-6.3,8.1-11.2,10.2c2.5,0.8,4.6,2.7,6.3,5.4l2.9,4.4c0.6,1,0.9,1.9,0.9,2.9c0,1.2-0.5,2.3-1.5,3
	c-1,0.8-2.2,1.2-3.5,1.2c-1,0-1.9-0.2-2.8-0.7c-0.8-0.5-1.6-1.2-2.2-2l-4.8-8c-0.8-1.3-1.8-2.2-3-2.8s-2.8-0.9-4.8-0.9
	c-5.7,0-10.5-1.2-14.7-3.6c-4.2-2.5-7.3-5.9-9.5-10.3c-2.2-4.5-3.3-9.8-3.3-15.7c0-6,1.2-11.2,3.3-15.7c2.2-4.4,5.4-7.8,9.5-10.3
	C118.2,114,123,112.9,128.7,112.9L128.7,112.9z M268.8,113c1.4,0,2.5,0.6,3.5,1.8l16.8,20.8l16.7-20.8c1-1.2,2.2-1.8,3.6-1.8
	c1.2,0,2.3,0.5,3.3,1.5s1.5,2,1.5,3.5c0,1.1-0.4,2.2-1.2,3.2L294.3,144v22.8c0,1.7-0.5,3-1.5,4s-2.2,1.4-3.7,1.4
	c-1.6,0-2.9-0.5-3.9-1.4s-1.5-2.2-1.5-4V144l-18.4-23c-0.8-1-1.2-2-1.2-3.2c0-1.3,0.5-2.5,1.5-3.5C266.5,113.4,267.7,113,268.8,113
	L268.8,113z M192.9,113.4c6.2,0,11,1.5,14.5,4.7c3.5,3,5.2,7.4,5.2,13s-1.8,9.9-5.2,13c-3.5,3.2-8.3,4.7-14.5,4.7h-14.7v17.7
	c0,1.7-0.5,3-1.5,3.9c-1,1-2.3,1.5-3.9,1.5c-1.6-0.1-2.9-0.5-3.8-1.5c-1-1-1.5-2.3-1.5-3.9v-48c0-1.6,0.5-2.8,1.4-3.7
	c0.9-0.8,2.2-1.3,3.7-1.3L192.9,113.4L192.9,113.4z M85,113c1.6,0,3,0.5,3.9,1.5c1,1,1.5,2.2,1.5,3.8v48.2c0,1.6-0.5,2.9-1.5,3.9
	s-2.3,1.5-3.9,1.5c-1.5,0-2.8-0.5-3.8-1.5s-1.5-2.3-1.5-3.9v-48.2c0-1.6,0.5-2.8,1.5-3.8C82.1,113.4,83.4,113,85,113z M239.9,112.9
	c1.2,0,2.2,0.3,3.2,0.8c1,0.6,1.8,1.4,2.3,2.5l22.8,48.7c0.2,0.8,0.4,1.4,0.4,2.2c0,1.2-0.5,2.3-1.5,3.2c-1,0.8-2.2,1.3-3.5,1.3
	c-0.8,0-1.7-0.2-2.5-0.7s-1.4-1.2-1.8-2.2l-5-11h-28.8l-5,11c-0.5,1-1.1,1.7-1.8,2.2c-0.8,0.5-1.6,0.7-2.5,0.7
	c-1.2,0-2.5-0.5-3.5-1.3c-1.1-0.8-1.5-1.9-1.5-3.2c0-0.7,0.2-1.5,0.5-2.2l22.7-48.7c0.5-1.1,1.2-1.9,2.3-2.5
	C237.7,113.1,238.7,112.9,239.9,112.9L239.9,112.9z M39.5,113c1.6,0,3,0.5,3.9,1.5c1,1,1.5,2.2,1.5,3.8v44.4h23c3.3,0,5,1.5,5,4.3
	s-1.7,4.3-5,4.3H39.2c-1.6,0-2.8-0.5-3.7-1.3c-0.8-0.8-1.3-2-1.3-3.6v-48.1c0-1.6,0.5-2.8,1.5-3.8C36.7,113.5,37.9,113,39.5,113z
	 M128.6,121.2c-5.4,0-9.5,1.8-12.5,5.4c-3,3.7-4.5,8.8-4.5,15.7s1.5,12.1,4.5,15.7c3,3.7,7.2,5.5,12.5,5.5s9.5-1.8,12.5-5.5
	s4.5-8.9,4.5-15.7c0-6.9-1.5-12.1-4.5-15.7C138.1,123,134,121.2,128.6,121.2L128.6,121.2z M239.9,125.3l-10.8,24.3h21.7L239.9,125.3
	z M191.5,121.7h-13.3v19l13.3,0.1c7.3,0,10.9-3.2,10.9-9.5C202.5,124.9,198.8,121.7,191.5,121.7L191.5,121.7z"/>
</svg>
