<svg xmlns="http://www.w3.org/2000/svg" viewBox="0 10.649999618530273 4
230.3500061035156 26.98000717163086"
 data-asc="0.975" width="230.3500061035156" height="26.98000717163086"><defs/>
 <g fill="#2f9ef8"><g transform="translate(0, 0) scale(0.5)"><path d="M16.48 50.35L16.48 45.98Q11.63 45.83 7.91 43.99Q4.20 42.15 2.10 38.85Q0 35.55 0 31.02Q0 26.47 2.10 23.17Q4.20 19.88 7.91 18.04Q11.63 16.20 16.48 16.05L16.48 11.77L22.83 11.77L22.83 16.05Q27.65 16.20 31.38 18.04Q35.10 19.88 37.20 23.17Q39.30 26.47 39.30 31.02Q39.30 35.55 37.20 38.85Q35.10 42.15 31.38 43.99Q27.65 45.83 22.83 45.98L22.83 50.35L16.48 50.35M16.48 40.50L16.48 21.52Q13.40 21.63 11.18 22.80Q8.95 23.97 7.75 26.06Q6.55 28.15 6.55 31.02Q6.55 33.90 7.75 35.98Q8.95 38.05 11.18 39.21Q13.40 40.38 16.48 40.50M22.83 40.50Q25.90 40.38 28.13 39.21Q30.35 38.05 31.55 35.98Q32.75 33.90 32.75 31.02Q32.75 28.15 31.55 26.06Q30.35 23.97 28.13 22.80Q25.90 21.63 22.83 21.52L22.83 40.50ZM63.03 49.50Q59.05 49.50 55.66 48.11Q52.28 46.73 49.78 44.25Q47.28 41.77 45.90 38.45Q44.53 35.13 44.53 31.25Q44.53 27.35 45.90 24.02Q47.28 20.70 49.78 18.22Q52.28 15.75 55.66 14.38Q59.05 13 63.03 13Q66.98 13 70.35 14.40Q73.73 15.80 76.23 18.30Q78.73 20.80 80.13 24.11Q81.53 27.42 81.53 31.25Q81.53 35.13 80.13 38.45Q78.73 41.77 76.23 44.25Q73.73 46.73 70.35 48.11Q66.98 49.50 63.03 49.50M63.03 43.38Q65.50 43.38 67.64 42.51Q69.78 41.65 71.36 40.06Q72.95 38.48 73.84 36.24Q74.73 34 74.73 31.25Q74.73 27.57 73.18 24.85Q71.63 22.13 68.98 20.63Q66.33 19.13 63.03 19.13Q60.53 19.13 58.40 19.97Q56.28 20.82 54.69 22.42Q53.10 24.02 52.21 26.25Q51.33 28.47 51.33 31.25Q51.33 34.92 52.86 37.65Q54.40 40.38 57.05 41.88Q59.70 43.38 63.03 43.38ZM89.17 48.75L89.17 13.75L118.08 13.75L118.08 48.75L111.58 48.75L111.58 19.70L95.67 19.70L95.67 48.75L89.17 48.75ZM138.90 48.75L138.90 13.75L145.17 13.75L159.13 36.60L156.57 36.63L169.95 13.75L176.15 13.75L176.15 48.75L169.82 48.75L169.93 22.25L171.13 22.67L159.82 41.52L155.25 41.52L143.67 22.67L144.75 22.25L144.85 48.75L138.90 48.75ZM184.25 48.75L184.25 23.75L190.65 23.75L190.65 48.75L184.25 48.75M187.45 19.55Q185.80 19.55 184.60 18.50Q183.40 17.45 183.40 15.73Q183.40 14 184.60 12.95Q185.80 11.90 187.45 11.90Q189.10 11.90 190.30 12.95Q191.50 14 191.50 15.73Q191.50 17.45 190.30 18.50Q189.10 19.55 187.45 19.55ZM209.63 49.50Q205.65 49.50 202.56 47.76Q199.48 46.02 197.70 43.04Q195.93 40.05 195.93 36.25Q195.93 33.38 196.98 30.96Q198.03 28.55 199.93 26.76Q201.83 24.97 204.39 23.99Q206.95 23 209.98 23Q212.60 23 214.85 23.70Q217.10 24.40 218.98 25.85L216.00 30.68Q214.83 29.63 213.34 29.11Q211.85 28.60 210.23 28.60Q207.78 28.60 206.01 29.50Q204.25 30.40 203.30 32.10Q202.35 33.80 202.35 36.23Q202.35 39.83 204.46 41.86Q206.58 43.90 210.23 43.90Q212.05 43.90 213.68 43.23Q215.30 42.55 216.50 41.38L219.35 46.23Q217.30 47.75 214.78 48.63Q212.25 49.50 209.63 49.50ZM222.35 48.75L231.63 35.80L233.15 39.83Q230.10 39.83 227.90 38.89Q225.70 37.95 224.50 36.20Q223.30 34.45 223.30 32.05Q223.30 29.45 224.59 27.59Q225.88 25.72 228.25 24.74Q230.63 23.75 233.83 23.75L245.05 23.75L245.05 48.75L238.93 48.75L238.93 28.45L234.50 28.45Q232.13 28.45 230.89 29.31Q229.65 30.18 229.65 31.88Q229.65 33.52 230.79 34.45Q231.93 35.38 234.08 35.38L239.65 35.38L239.65 39.88L235.78 39.88L229.50 48.75L222.35 48.75ZM252.43 48.75L252.43 23.75L258.58 23.75L258.58 39.55L271.20 23.75L276.85 23.75L276.85 48.75L270.70 48.75L270.70 32.75L258 48.75L252.43 48.75M264.63 19.75Q261.73 19.75 259.55 18.59Q257.38 17.42 256.19 15.38Q255.00 13.32 255.08 10.65L260.35 10.65Q260.28 12.80 261.44 14.11Q262.60 15.42 264.63 15.42Q266.65 15.42 267.81 14.11Q268.98 12.80 268.85 10.65L274.15 10.65Q274.23 13.27 273.01 15.34Q271.80 17.40 269.63 18.57Q267.45 19.75 264.63 19.75ZM283.63 49.25L281.45 43.52Q284.00 42.88 285.18 41.52Q286.35 40.17 286.68 37.80Q287.00 35.42 287.00 31.72L287.00 23.75L307.90 23.75L307.90 48.75L301.50 48.75L301.50 28.95L292.90 28.95L292.90 31.72Q292.90 35.65 292.50 38.63Q292.10 41.60 291.09 43.73Q290.08 45.85 288.26 47.20Q286.45 48.55 283.63 49.25ZM326.85 49.50Q322.85 49.50 319.76 47.69Q316.68 45.88 314.93 42.86Q313.18 39.85 313.18 36.25Q313.18 33.60 314.18 31.20Q315.18 28.80 317.01 26.96Q318.85 25.13 321.35 24.06Q323.85 23 326.85 23Q330.83 23 333.91 24.80Q337.00 26.60 338.76 29.63Q340.53 32.65 340.53 36.25Q340.53 38.90 339.51 41.29Q338.50 43.67 336.68 45.52Q334.85 47.38 332.35 48.44Q329.85 49.50 326.85 49.50M326.85 43.90Q328.95 43.90 330.61 42.96Q332.28 42.02 333.23 40.31Q334.18 38.60 334.18 36.25Q334.18 33.90 333.23 32.17Q332.28 30.45 330.63 29.52Q328.98 28.60 326.85 28.60Q324.73 28.60 323.06 29.52Q321.40 30.45 320.46 32.17Q319.53 33.90 319.53 36.25Q319.53 38.60 320.48 40.31Q321.43 42.02 323.08 42.96Q324.73 43.90 326.85 43.90ZM381.28 48.75L381.28 19.70L368.58 19.70L368.58 24.10Q368.58 30.32 367.96 34.69Q367.35 39.05 366.04 41.86Q364.73 44.67 362.56 46.27Q360.40 47.88 357.30 48.63L355.03 43.27Q357.25 42.75 358.69 41.70Q360.13 40.65 360.93 38.58Q361.73 36.50 362.05 33Q362.38 29.50 362.38 24.10L362.38 13.75L387.78 13.75L387.78 48.75L381.28 48.75M355.03 57.63L355.03 43.27L359.15 43.48L361.40 42.80L393.38 42.80L393.38 57.63L387.23 57.63L387.23 48.75L361.18 48.75L361.18 57.63L355.03 57.63ZM401.58 49.50Q399.83 49.50 398.55 48.39Q397.28 47.27 397.28 45.42Q397.28 44.17 397.86 43.25Q398.45 42.33 399.43 41.83Q400.40 41.33 401.58 41.33Q403.35 41.33 404.61 42.44Q405.88 43.55 405.88 45.42Q405.88 46.65 405.29 47.58Q404.70 48.50 403.73 49Q402.75 49.50 401.58 49.50ZM412.88 48.75L412.88 13.75L441.78 13.75L441.78 48.75L435.28 48.75L435.28 19.70L419.38 19.70L419.38 48.75L412.88 48.75ZM453.05 49.50Q451.30 49.50 450.03 48.39Q448.75 47.27 448.75 45.42Q448.75 44.17 449.34 43.25Q449.93 42.33 450.90 41.83Q451.88 41.33 453.05 41.33Q454.83 41.33 456.09 42.44Q457.35 43.55 457.35 45.42Q457.35 46.65 456.76 47.58Q456.18 48.50 455.20 49Q454.23 49.50 453.05 49.50Z"/></g></g></svg>