<svg xmlns="http://www.w3.org/2000/svg" viewBox="0 0 120.0 43" 
data-asc="0.98" width="200.0" height="43">
<defs/><g fill="#fefefe"><g transform="translate(0, 0)"><path d="M0 49L0 14L6.20 14L17.35 34.75L28.50 14L34.50 14L34.50 49L28.50 49L28.50 24.50L19.25 41.75L15.25 41.75L6 24.50L6 49L0 49ZM43 49L43 22.50L48.50 22.50L48.50 49L43 49M45.75 19.50Q44.20 19.50 43.23 18.52Q42.25 17.55 42.25 16Q42.25 14.45 43.23 13.48Q44.20 12.50 45.75 12.50Q47.30 12.50 48.27 13.48Q49.25 14.45 49.25 16Q49.25 17.55 48.27 18.52Q47.30 19.50 45.75 19.50ZM67 49.55Q63.45 49.55 60.60 48.05Q57.75 46.55 56.13 43.55Q54.50 40.55 54.50 36L54.50 35Q54.50 30.70 56.23 27.80Q57.95 24.90 60.80 23.42Q63.65 21.95 67 21.95Q70.50 21.95 72.92 23.15Q75.35 24.35 76.72 26.40Q78.10 28.45 78.50 31L72.90 31Q72.40 29.15 71.10 27.95Q69.80 26.75 67 26.75Q65.15 26.75 63.58 27.60Q62 28.45 61.05 30.27Q60.10 32.10 60.10 35L60.10 36Q60.10 39.15 61.05 41.08Q62 43 63.58 43.88Q65.15 44.75 67 44.75Q69.35 44.75 70.80 43.70Q72.25 42.65 72.90 40.50L78.50 40.50Q78 43.30 76.42 45.33Q74.85 47.35 72.45 48.45Q70.05 49.55 67 49.55ZM82 49L88.90 38.95Q85.90 38.05 84.45 36Q83 33.95 83 31.05Q83 28.45 84.15 26.52Q85.30 24.60 87.65 23.55Q90 22.50 93.50 22.50L105.50 22.50L105.50 49L100 49L100 39.60L94.30 39.60L88.40 49L82 49M88.60 31.05Q88.60 33.15 89.85 34.02Q91.10 34.90 93.25 34.90L100 34.90L100 27.20L93.25 27.20Q91.10 27.20 89.85 28.07Q88.60 28.95 88.60 31.05ZM112.50 49L112.50 22.50L118 22.50L118 41.25L130.75 22.50L136 22.50L136 49L130.50 49L130.50 30.25L117.75 49L112.50 49M124.25 19.50Q120.10 19.50 118.17 17.67Q116.25 15.85 116.25 12.50L121.35 12.50Q121.35 14.30 122.08 15.10Q122.80 15.90 124.25 15.90Q125.70 15.90 126.42 15.10Q127.15 14.30 127.15 12.50L132.25 12.50Q132.25 15.85 130.30 17.67Q128.35 19.50 124.25 19.50ZM142.50 49.55Q142.10 49.55 141.63 49.52Q141.15 49.50 140.75 49.40L140.75 44.20Q140.90 44.25 141.50 44.25Q142.90 44.25 143.78 43.05Q144.65 41.85 145.07 38.88Q145.50 35.90 145.50 30.50L145.50 22.50L165.50 22.50L165.50 49L160 49L160 27.20L150.80 27.20L150.80 31.50Q150.80 36.80 150.28 40.33Q149.75 43.85 148.70 45.85Q147.65 47.85 146.10 48.70Q144.55 49.55 142.50 49.55ZM184 49.55Q180.35 49.55 177.40 48.02Q174.45 46.50 172.72 43.48Q171 40.45 171 36L171 35Q171 30.80 172.72 27.88Q174.45 24.95 177.40 23.45Q180.35 21.95 184 21.95Q187.70 21.95 190.63 23.45Q193.55 24.95 195.28 27.88Q197 30.80 197 35L197 36Q197 40.45 195.28 43.48Q193.55 46.50 190.63 48.02Q187.70 49.55 184 49.55M184 44.75Q185.90 44.75 187.60 43.85Q189.30 42.95 190.35 41.02Q191.40 39.10 191.40 36L191.40 35Q191.40 32.15 190.35 30.32Q189.30 28.50 187.60 27.63Q185.90 26.75 184 26.75Q182.10 26.75 180.40 27.63Q178.70 28.50 177.65 30.32Q176.60 32.15 176.60 35L176.60 36Q176.60 39.10 177.65 41.02Q178.70 42.95 180.40 43.85Q182.10 44.75 184 44.75ZM212.50 55.50L212.50 43.80L216.25 43.80Q217.20 41.95 217.78 39.35Q218.35 36.75 218.68 33.70Q219 30.65 219.13 27.52Q219.25 24.40 219.25 21.50L219.25 14L242.95 14L242.95 43.80L247 43.80L247 55.50L241.50 55.50L241.50 49L218 49L218 55.50L212.50 55.50M222.35 43.80L236.95 43.80L236.95 19.20L225.05 19.20L225.05 22.50Q225.05 29.70 224.35 34.85Q223.65 40 222.35 43.80ZM258.15 49.55Q257.05 49.55 256.13 49.02Q255.20 48.50 254.68 47.58Q254.15 46.65 254.15 45.55Q254.15 43.80 255.30 42.67Q256.45 41.55 258.15 41.55Q259.85 41.55 261 42.67Q262.15 43.80 262.15 45.55Q262.15 46.65 261.63 47.58Q261.10 48.50 260.20 49.02Q259.30 49.55 258.15 49.55ZM270.40 49L270.40 14L298.90 14L298.90 49L292.90 49L292.90 19.20L276.40 19.20L276.40 49L270.40 49ZM311.15 49.55Q310.05 49.55 309.13 49.02Q308.20 48.50 307.67 47.58Q307.15 46.65 307.15 45.55Q307.15 43.80 308.30 42.67Q309.45 41.55 311.15 41.55Q312.85 41.55 314 42.67Q315.15 43.80 315.15 45.55Q315.15 46.65 314.63 47.58Q314.10 48.50 313.20 49.02Q312.30 49.55 311.15 49.55Z" transform="scale(0.3)"/></g></g></svg>